<svg height="480" version="1.1" width="640" xmlns="http://www.w3.org/2000/svg" style="overflow: hidden; position: relative; top: -0.316666px;"><desc>Created with Raphaël 2.0.1</desc><defs></defs><rect x="0" y="0" width="640" height="480" r="0" rx="0" ry="0" fill="#9ebda4" stroke="none" style=""></rect><rect x="467" y="331" width="118" height="172" r="5" rx="5" ry="5" fill="#16bff9" stroke="#fef81e" transform="matrix(1,0,0,1,-59,-86)" style="opacity: 0.44;" stroke-width="21" opacity="0.44"></rect><rect x="252" y="290" width="78" height="210" r="5" rx="5" ry="5" fill="#16bff9" stroke="#fef81e" transform="matrix(1,0,0,1,-39,-105)" style="opacity: 0.44;" stroke-width="21" opacity="0.44"></rect><rect x="538" y="155" width="233" height="248" r="5" rx="5" ry="5" fill="#16bff9" stroke="#fef81e" transform="matrix(1,0,0,1,-116.5,-124)" style="opacity: 0.44;" stroke-width="21" opacity="0.44"></rect><rect x="421" y="284" width="128" height="177" r="5" rx="5" ry="5" fill="#16bff9" stroke="#fef81e" transform="matrix(1,0,0,1,-64,-88.5)" style="opacity: 0.44;" stroke-width="21" opacity="0.44"></rect><rect x="178" y="198" width="265" height="294" r="5" rx="5" ry="5" fill="#16bff9" stroke="#fef81e" transform="matrix(1,0,0,1,-132.5,-147)" style="opacity: 0.44;" stroke-width="21" opacity="0.44"></rect><rect x="62" y="217" width="166" height="285" r="5" rx="5" ry="5" fill="#16bff9" stroke="#fef81e" transform="matrix(1,0,0,1,-83,-142.5)" style="opacity: 0.44;" stroke-width="21" opacity="0.44"></rect><rect x="533" y="194" width="193" height="297" r="5" rx="5" ry="5" fill="#16bff9" stroke="#fef81e" transform="matrix(1,0,0,1,-96.5,-148.5)" style="opacity: 0.44;" stroke-width="21" opacity="0.44"></rect><rect x="416" y="323" width="210" height="235" r="5" rx="5" ry="5" fill="#16bff9" stroke="#fef81e" transform="matrix(1,0,0,1,-105,-117.5)" style="opacity: 0.44;" stroke-width="21" opacity="0.44"></rect><rect x="95" y="334" width="261" height="114" r="5" rx="5" ry="5" fill="#16bff9" stroke="#fef81e" transform="matrix(1,0,0,1,-130.5,-57)" style="opacity: 0.44;" stroke-width="21" opacity="0.44"></rect><rect x="94" y="141" width="25" height="313" r="5" rx="5" ry="5" fill="#16bff9" stroke="#fef81e" transform="matrix(1,0,0,1,-12.5,-156.5)" style="opacity: 0.44;" stroke-width="21" opacity="0.44"></rect><rect x="170" y="336" width="42" height="131" r="5" rx="5" ry="5" fill="#16bff9" stroke="#fef81e" transform="matrix(1,0,0,1,-21,-65.5)" style="opacity: 0.44;" stroke-width="21" opacity="0.44"></rect><rect x="391" y="243" width="205" height="218" r="5" rx="5" ry="5" fill="#16bff9" stroke="#fef81e" transform="matrix(1,0,0,1,-102.5,-109)" style="opacity: 0.44;" stroke-width="21" opacity="0.44"></rect><rect x="437" y="310" width="199" height="221" r="5" rx="5" ry="5" fill="#16bff9" stroke="#fef81e" transform="matrix(1,0,0,1,-99.5,-110.5)" style="opacity: 0.44;" stroke-width="21" opacity="0.44"></rect><rect x="136" y="153" width="108" height="143" r="5" rx="5" ry="5" fill="#16bff9" stroke="#fef81e" transform="matrix(1,0,0,1,-54,-71.5)" style="opacity: 0.44;" stroke-width="21" opacity="0.44"></rect><rect x="89" y="156" width="214" height="29" r="5" rx="5" ry="5" fill="#16bff9" stroke="#fef81e" transform="matrix(1,0,0,1,-107,-14.5)" style="opacity: 0.44;" stroke-width="21" opacity="0.44"></rect><rect x="333" y="347" width="21" height="249" r="5" rx="5" ry="5" fill="#16bff9" stroke="#fef81e" transform="matrix(1,0,0,1,-10.5,-124.5)" style="opacity: 0.44;" stroke-width="21" opacity="0.44"></rect><rect x="119" y="178" width="131" height="107" r="5" rx="5" ry="5" fill="#16bff9" stroke="#fef81e" transform="matrix(1,0,0,1,-65.5,-53.5)" style="opacity: 0.44;" stroke-width="21" opacity="0.44"></rect><rect x="477" y="320" width="200" height="277" r="5" rx="5" ry="5" fill="#16bff9" stroke="#fef81e" transform="matrix(1,0,0,1,-100,-138.5)" style="opacity: 0.44;" stroke-width="21" opacity="0.44"></rect><rect x="377" y="281" width="248" height="197" r="5" rx="5" ry="5" fill="#16bff9" stroke="#fef81e" transform="matrix(1,0,0,1,-124,-98.5)" style="opacity: 0.44;" stroke-width="21" opacity="0.44"></rect><rect x="465" y="162" width="267" height="295" r="5" rx="5" ry="5" fill="#16bff9" stroke="#fef81e" transform="matrix(1,0,0,1,-133.5,-147.5)" style="opacity: 0.44;" stroke-width="21" opacity="0.44"></rect><rect x="109" y="309" width="309" height="195" r="5" rx="5" ry="5" fill="#16bff9" stroke="#fef81e" transform="matrix(1,0,0,1,-154.5,-97.5)" style="opacity: 0.44;" stroke-width="21" opacity="0.44"></rect><rect x="119" y="136" width="277" height="308" r="5" rx="5" ry="5" fill="#16bff9" stroke="#fef81e" transform="matrix(1,0,0,1,-138.5,-154)" style="opacity: 0.44;" stroke-width="21" opacity="0.44"></rect><rect x="551" y="347" width="157" height="147" r="5" rx="5" ry="5" fill="#16bff9" stroke="#fef81e" transform="matrix(1,0,0,1,-78.5,-73.5)" style="opacity: 0.44;" stroke-width="21" opacity="0.44"></rect><rect x="236" y="145" width="214" height="232" r="5" rx="5" ry="5" fill="#16bff9" stroke="#fef81e" transform="matrix(1,0,0,1,-107,-116)" style="opacity: 0.44;" stroke-width="21" opacity="0.44"></rect><rect x="246" y="340" width="176" height="118" r="5" rx="5" ry="5" fill="#16bff9" stroke="#fef81e" transform="matrix(1,0,0,1,-88,-59)" style="opacity: 0.44;" stroke-width="21" opacity="0.44"></rect><rect x="225" y="132" width="252" height="56" r="5" rx="5" ry="5" fill="#16bff9" stroke="#fef81e" transform="matrix(1,0,0,1,-126,-28)" style="opacity: 0.44;" stroke-width="21" opacity="0.44"></rect><rect x="188" y="284" width="228" height="93" r="5" rx="5" ry="5" fill="#16bff9" stroke="#fef81e" transform="matrix(1,0,0,1,-114,-46.5)" style="opacity: 0.44;" stroke-width="21" opacity="0.44"></rect><rect x="202" y="292" width="75" height="288" r="5" rx="5" ry="5" fill="#16bff9" stroke="#fef81e" transform="matrix(1,0,0,1,-37.5,-144)" style="opacity: 0.44;" stroke-width="21" opacity="0.44"></rect><rect x="96" y="301" width="249" height="144" r="5" rx="5" ry="5" fill="#16bff9" stroke="#fef81e" transform="matrix(1,0,0,1,-124.5,-72)" style="opacity: 0.44;" stroke-width="21" opacity="0.44"></rect><rect x="132" y="348" width="283" height="188" r="5" rx="5" ry="5" fill="#16bff9" stroke="#fef81e" transform="matrix(1,0,0,1,-141.5,-94)" style="opacity: 0.44;" stroke-width="21" opacity="0.44"></rect><rect x="66" y="205" width="119" height="112" r="5" rx="5" ry="5" fill="#16bff9" stroke="#fef81e" transform="matrix(1,0,0,1,-59.5,-56)" style="opacity: 0.44;" stroke-width="21" opacity="0.44"></rect><rect x="165" y="179" width="210" height="172" r="5" rx="5" ry="5" fill="#16bff9" stroke="#fef81e" transform="matrix(1,0,0,1,-105,-86)" style="opacity: 0.44;" stroke-width="21" opacity="0.44"></rect><rect x="494" y="216" width="187" height="45" r="5" rx="5" ry="5" fill="#16bff9" stroke="#fef81e" transform="matrix(1,0,0,1,-93.5,-22.5)" style="opacity: 0.44;" stroke-width="21" opacity="0.44"></rect><rect x="231" y="212" width="20" height="295" r="5" rx="5" ry="5" fill="#16bff9" stroke="#fef81e" transform="matrix(1,0,0,1,-10,-147.5)" style="opacity: 0.44;" stroke-width="21" opacity="0.44"></rect><rect x="537" y="173" width="80" height="215" r="5" rx="5" ry="5" fill="#16bff9" stroke="#fef81e" transform="matrix(1,0,0,1,-40,-107.5)" style="opacity: 0.44;" stroke-width="21" opacity="0.44"></rect><rect x="410" y="334" width="241" height="175" r="5" rx="5" ry="5" fill="#16bff9" stroke="#fef81e" transform="matrix(1,0,0,1,-120.5,-87.5)" style="opacity: 0.44;" stroke-width="21" opacity="0.44"></rect><rect x="75" y="183" width="285" height="230" r="5" rx="5" ry="5" fill="#16bff9" stroke="#fef81e" transform="matrix(1,0,0,1,-142.5,-115)" style="opacity: 0.44;" stroke-width="21" opacity="0.44"></rect><rect x="506" y="260" width="283" height="228" r="5" rx="5" ry="5" fill="#16bff9" stroke="#fef81e" transform="matrix(1,0,0,1,-141.5,-114)" style="opacity: 0.44;" stroke-width="21" opacity="0.44"></rect><rect x="437" y="318" width="293" height="32" r="5" rx="5" ry="5" fill="#16bff9" stroke="#fef81e" transform="matrix(1,0,0,1,-146.5,-16)" style="opacity: 0.44;" stroke-width="21" opacity="0.44"></rect><rect x="115" y="206" width="252" height="280" r="5" rx="5" ry="5" fill="#16bff9" stroke="#fef81e" transform="matrix(1,0,0,1,-126,-140)" style="opacity: 0.44;" stroke-width="21" opacity="0.44"></rect><rect x="343" y="155" width="173" height="239" r="5" rx="5" ry="5" fill="#16bff9" stroke="#fef81e" transform="matrix(1,0,0,1,-86.5,-119.5)" style="opacity: 0.44;" stroke-width="21" opacity="0.44"></rect><rect x="511" y="315" width="191" height="152" r="5" rx="5" ry="5" fill="#16bff9" stroke="#fef81e" transform="matrix(1,0,0,1,-95.5,-76)" style="opacity: 0.44;" stroke-width="21" opacity="0.44"></rect><rect x="216" y="201" width="291" height="147" r="5" rx="5" ry="5" fill="#16bff9" stroke="#fef81e" transform="matrix(1,0,0,1,-145.5,-73.5)" style="opacity: 0.44;" stroke-width="21" opacity="0.44"></rect><rect x="324" y="230" width="167" height="94" r="5" rx="5" ry="5" fill="#16bff9" stroke="#fef81e" transform="matrix(1,0,0,1,-83.5,-47)" style="opacity: 0.44;" stroke-width="21" opacity="0.44"></rect><rect x="536" y="324" width="290" height="181" r="5" rx="5" ry="5" fill="#16bff9" stroke="#fef81e" transform="matrix(1,0,0,1,-145,-90.5)" style="opacity: 0.44;" stroke-width="21" opacity="0.44"></rect><rect x="372" y="283" width="56" height="150" r="5" rx="5" ry="5" fill="#16bff9" stroke="#fef81e" transform="matrix(1,0,0,1,-28,-75)" style="opacity: 0.44;" stroke-width="21" opacity="0.44"></rect><rect x="185" y="227" width="110" height="318" r="5" rx="5" ry="5" fill="#16bff9" stroke="#fef81e" transform="matrix(1,0,0,1,-55,-159)" style="opacity: 0.44;" stroke-width="21" opacity="0.44"></rect><rect x="309" y="336" width="276" height="101" r="5" rx="5" ry="5" fill="#16bff9" stroke="#fef81e" transform="matrix(1,0,0,1,-138,-50.5)" style="opacity: 0.44;" stroke-width="21" opacity="0.44"></rect><rect x="136" y="261" width="34" height="243" r="5" rx="5" ry="5" fill="#16bff9" stroke="#fef81e" transform="matrix(1,0,0,1,-17,-121.5)" style="opacity: 0.44;" stroke-width="21" opacity="0.44"></rect><rect x="216" y="320" width="176" height="317" r="5" rx="5" ry="5" fill="#16bff9" stroke="#fef81e" transform="matrix(1,0,0,1,-88,-158.5)" style="opacity: 0.44;" stroke-width="21" opacity="0.44"></rect><rect x="396" y="183" width="153" height="31" r="5" rx="5" ry="5" fill="#16bff9" stroke="#fef81e" transform="matrix(1,0,0,1,-76.5,-15.5)" style="opacity: 0.44;" stroke-width="21" opacity="0.44"></rect><rect x="533" y="320" width="202" height="31" r="5" rx="5" ry="5" fill="#16bff9" stroke="#fef81e" transform="matrix(1,0,0,1,-101,-15.5)" style="opacity: 0.44;" stroke-width="21" opacity="0.44"></rect><rect x="119" y="159" width="214" height="123" r="5" rx="5" ry="5" fill="#16bff9" stroke="#fef81e" transform="matrix(1,0,0,1,-107,-61.5)" style="opacity: 0.44;" stroke-width="21" opacity="0.44"></rect><rect x="347" y="236" width="303" height="316" r="5" rx="5" ry="5" fill="#16bff9" stroke="#fef81e" transform="matrix(1,0,0,1,-151.5,-158)" style="opacity: 0.44;" stroke-width="21" opacity="0.44"></rect><rect x="152" y="334" width="35" height="88" r="5" rx="5" ry="5" fill="#16bff9" stroke="#fef81e" transform="matrix(1,0,0,1,-17.5,-44)" style="opacity: 0.44;" stroke-width="21" opacity="0.44"></rect><rect x="120" y="220" width="195" height="43" r="5" rx="5" ry="5" fill="#16bff9" stroke="#fef81e" transform="matrix(1,0,0,1,-97.5,-21.5)" style="opacity: 0.44;" stroke-width="21" opacity="0.44"></rect><rect x="262" y="142" width="69" height="244" r="5" rx="5" ry="5" fill="#16bff9" stroke="#fef81e" transform="matrix(1,0,0,1,-34.5,-122)" style="opacity: 0.44;" stroke-width="21" opacity="0.44"></rect><rect x="236" y="350" width="245" height="144" r="5" rx="5" ry="5" fill="#16bff9" stroke="#fef81e" transform="matrix(1,0,0,1,-122.5,-72)" style="opacity: 0.44;" stroke-width="21" opacity="0.44"></rect><rect x="404" y="344" width="99" height="178" r="5" rx="5" ry="5" fill="#16bff9" stroke="#fef81e" transform="matrix(1,0,0,1,-49.5,-89)" style="opacity: 0.44;" stroke-width="21" opacity="0.44"></rect><rect x="203" y="181" width="255" height="309" r="5" rx="5" ry="5" fill="#16bff9" stroke="#fef81e" transform="matrix(1,0,0,1,-127.5,-154.5)" style="opacity: 0.44;" stroke-width="21" opacity="0.44"></rect><rect x="92" y="299" width="154" height="115" r="5" rx="5" ry="5" fill="#16bff9" stroke="#fef81e" transform="matrix(1,0,0,1,-77,-57.5)" style="opacity: 0.44;" stroke-width="21" opacity="0.44"></rect><rect x="109" y="192" width="68" height="96" r="5" rx="5" ry="5" fill="#16bff9" stroke="#fef81e" transform="matrix(1,0,0,1,-34,-48)" style="opacity: 0.44;" stroke-width="21" opacity="0.44"></rect></svg>