<svg height="480" version="1.1" width="640" xmlns="http://www.w3.org/2000/svg" style="overflow: hidden; position: relative; top: -0.316666px;"><desc>Created with Raphaël 2.0.1</desc><defs></defs><rect x="0" y="0" width="640" height="480" r="0" rx="0" ry="0" fill="#16b063" stroke="none" style=""></rect><rect x="240" y="52" width="67" height="232" r="5" rx="5" ry="5" fill="#dfd391" stroke="#b0d086" transform="matrix(1,0,0,1,-33.5,-116)" style="opacity: 0.47;" stroke-width="21" opacity="0.47"></rect><rect x="421" y="333" width="62" height="302" r="5" rx="5" ry="5" fill="#dfd391" stroke="#b0d086" transform="matrix(1,0,0,1,-31,-151)" style="opacity: 0.47;" stroke-width="21" opacity="0.47"></rect><rect x="267" y="-8" width="50" height="318" r="5" rx="5" ry="5" fill="#dfd391" stroke="#b0d086" transform="matrix(1,0,0,1,-25,-159)" style="opacity: 0.47;" stroke-width="21" opacity="0.47"></rect><rect x="297" y="115" width="206" height="139" r="5" rx="5" ry="5" fill="#dfd391" stroke="#b0d086" transform="matrix(1,0,0,1,-103,-69.5)" style="opacity: 0.47;" stroke-width="21" opacity="0.47"></rect><rect x="373" y="390" width="54" height="194" r="5" rx="5" ry="5" fill="#dfd391" stroke="#b0d086" transform="matrix(1,0,0,1,-27,-97)" style="opacity: 0.47;" stroke-width="21" opacity="0.47"></rect><rect x="391" y="374" width="45" height="281" r="5" rx="5" ry="5" fill="#dfd391" stroke="#b0d086" transform="matrix(1,0,0,1,-22.5,-140.5)" style="opacity: 0.47;" stroke-width="21" opacity="0.47"></rect><rect x="187" y="352" width="309" height="158" r="5" rx="5" ry="5" fill="#dfd391" stroke="#b0d086" transform="matrix(1,0,0,1,-154.5,-79)" style="opacity: 0.47;" stroke-width="21" opacity="0.47"></rect><rect x="401" y="317" width="91" height="234" r="5" rx="5" ry="5" fill="#dfd391" stroke="#b0d086" transform="matrix(1,0,0,1,-45.5,-117)" style="opacity: 0.47;" stroke-width="21" opacity="0.47"></rect><rect x="397" y="175" width="103" height="87" r="5" rx="5" ry="5" fill="#dfd391" stroke="#b0d086" transform="matrix(1,0,0,1,-51.5,-43.5)" style="opacity: 0.47;" stroke-width="21" opacity="0.47"></rect><rect x="449" y="62" width="238" height="113" r="5" rx="5" ry="5" fill="#dfd391" stroke="#b0d086" transform="matrix(1,0,0,1,-119,-56.5)" style="opacity: 0.47;" stroke-width="21" opacity="0.47"></rect><rect x="206" y="270" width="66" height="220" r="5" rx="5" ry="5" fill="#dfd391" stroke="#b0d086" transform="matrix(1,0,0,1,-33,-110)" style="opacity: 0.47;" stroke-width="21" opacity="0.47"></rect><rect x="431" y="32" width="283" height="310" r="5" rx="5" ry="5" fill="#dfd391" stroke="#b0d086" transform="matrix(1,0,0,1,-141.5,-155)" style="opacity: 0.47;" stroke-width="21" opacity="0.47"></rect><rect x="305" y="208" width="98" height="296" r="5" rx="5" ry="5" fill="#dfd391" stroke="#b0d086" transform="matrix(1,0,0,1,-49,-148)" style="opacity: 0.47;" stroke-width="21" opacity="0.47"></rect><rect x="180" y="491" width="49" height="68" r="5" rx="5" ry="5" fill="#dfd391" stroke="#b0d086" transform="matrix(1,0,0,1,-24.5,-34)" style="opacity: 0.47;" stroke-width="21" opacity="0.47"></rect><rect x="430" y="60" width="274" height="50" r="5" rx="5" ry="5" fill="#dfd391" stroke="#b0d086" transform="matrix(1,0,0,1,-137,-25)" style="opacity: 0.47;" stroke-width="21" opacity="0.47"></rect><rect x="439" y="222" width="233" height="171" r="5" rx="5" ry="5" fill="#dfd391" stroke="#b0d086" transform="matrix(1,0,0,1,-116.5,-85.5)" style="opacity: 0.47;" stroke-width="21" opacity="0.47"></rect><rect x="432" y="56" width="215" height="57" r="5" rx="5" ry="5" fill="#dfd391" stroke="#b0d086" transform="matrix(1,0,0,1,-107.5,-28.5)" style="opacity: 0.47;" stroke-width="21" opacity="0.47"></rect><rect x="433" y="362" width="107" height="236" r="5" rx="5" ry="5" fill="#dfd391" stroke="#b0d086" transform="matrix(1,0,0,1,-53.5,-118)" style="opacity: 0.47;" stroke-width="21" opacity="0.47"></rect><rect x="270" y="476" width="243" height="181" r="5" rx="5" ry="5" fill="#dfd391" stroke="#b0d086" transform="matrix(1,0,0,1,-121.5,-90.5)" style="opacity: 0.47;" stroke-width="21" opacity="0.47"></rect><rect x="383" y="0" width="32" height="29" r="5" rx="5" ry="5" fill="#dfd391" stroke="#b0d086" transform="matrix(1,0,0,1,-16,-14.5)" style="opacity: 0.47;" stroke-width="21" opacity="0.47"></rect><rect x="398" y="430" width="180" height="268" r="5" rx="5" ry="5" fill="#dfd391" stroke="#b0d086" transform="matrix(1,0,0,1,-90,-134)" style="opacity: 0.47;" stroke-width="21" opacity="0.47"></rect><rect x="235" y="105" width="94" height="51" r="5" rx="5" ry="5" fill="#dfd391" stroke="#b0d086" transform="matrix(1,0,0,1,-47,-25.5)" style="opacity: 0.47;" stroke-width="21" opacity="0.47"></rect><rect x="300" y="257" width="150" height="276" r="5" rx="5" ry="5" fill="#dfd391" stroke="#b0d086" transform="matrix(1,0,0,1,-75,-138)" style="opacity: 0.47;" stroke-width="21" opacity="0.47"></rect><rect x="302" y="394" width="67" height="220" r="5" rx="5" ry="5" fill="#dfd391" stroke="#b0d086" transform="matrix(1,0,0,1,-33.5,-110)" style="opacity: 0.47;" stroke-width="21" opacity="0.47"></rect><rect x="237" y="443" width="255" height="30" r="5" rx="5" ry="5" fill="#dfd391" stroke="#b0d086" transform="matrix(1,0,0,1,-127.5,-15)" style="opacity: 0.47;" stroke-width="21" opacity="0.47"></rect><rect x="426" y="194" width="86" height="312" r="5" rx="5" ry="5" fill="#dfd391" stroke="#b0d086" transform="matrix(1,0,0,1,-43,-156)" style="opacity: 0.47;" stroke-width="21" opacity="0.47"></rect><rect x="244" y="50" width="202" height="88" r="5" rx="5" ry="5" fill="#dfd391" stroke="#b0d086" transform="matrix(1,0,0,1,-101,-44)" style="opacity: 0.47;" stroke-width="21" opacity="0.47"></rect><rect x="384" y="264" width="20" height="71" r="5" rx="5" ry="5" fill="#dfd391" stroke="#b0d086" transform="matrix(1,0,0,1,-10,-35.5)" style="opacity: 0.47;" stroke-width="21" opacity="0.47"></rect><rect x="238" y="287" width="111" height="271" r="5" rx="5" ry="5" fill="#dfd391" stroke="#b0d086" transform="matrix(1,0,0,1,-55.5,-135.5)" style="opacity: 0.47;" stroke-width="21" opacity="0.47"></rect><rect x="335" y="32" width="151" height="288" r="5" rx="5" ry="5" fill="#dfd391" stroke="#b0d086" transform="matrix(1,0,0,1,-75.5,-144)" style="opacity: 0.47;" stroke-width="21" opacity="0.47"></rect><rect x="279" y="371" width="93" height="227" r="5" rx="5" ry="5" fill="#dfd391" stroke="#b0d086" transform="matrix(1,0,0,1,-46.5,-113.5)" style="opacity: 0.47;" stroke-width="21" opacity="0.47"></rect><rect x="437" y="69" width="236" height="141" r="5" rx="5" ry="5" fill="#dfd391" stroke="#b0d086" transform="matrix(1,0,0,1,-118,-70.5)" style="opacity: 0.47;" stroke-width="21" opacity="0.47"></rect><rect x="414" y="356" width="210" height="190" r="5" rx="5" ry="5" fill="#dfd391" stroke="#b0d086" transform="matrix(1,0,0,1,-105,-95)" style="opacity: 0.47;" stroke-width="21" opacity="0.47"></rect><rect x="419" y="143" width="71" height="121" r="5" rx="5" ry="5" fill="#dfd391" stroke="#b0d086" transform="matrix(1,0,0,1,-35.5,-60.5)" style="opacity: 0.47;" stroke-width="21" opacity="0.47"></rect></svg>