<svg height="480" version="1.1" width="640" xmlns="http://www.w3.org/2000/svg" style="overflow: hidden; position: relative; top: -0.316666px;"><desc>Created with Raphaël 2.0.1</desc><defs></defs><rect x="0" y="0" width="640" height="480" r="0" rx="0" ry="0" fill="#ec7a03" stroke="none" style=""></rect><rect x="151" y="514" width="251" height="244" r="5" rx="5" ry="5" fill="#2cbe15" stroke="#666f15" transform="matrix(1,0,0,1,-125.5,-122)" style="opacity: 0.5;" stroke-width="9" opacity="0.5"></rect><rect x="194" y="202" width="153" height="103" r="5" rx="5" ry="5" fill="#2cbe15" stroke="#666f15" transform="matrix(1,0,0,1,-76.5,-51.5)" style="opacity: 0.5;" stroke-width="9" opacity="0.5"></rect><rect x="224" y="62" width="233" height="53" r="5" rx="5" ry="5" fill="#2cbe15" stroke="#666f15" transform="matrix(1,0,0,1,-116.5,-26.5)" style="opacity: 0.5;" stroke-width="9" opacity="0.5"></rect><rect x="615" y="180" width="107" height="55" r="5" rx="5" ry="5" fill="#2cbe15" stroke="#666f15" transform="matrix(1,0,0,1,-53.5,-27.5)" style="opacity: 0.5;" stroke-width="9" opacity="0.5"></rect><rect x="434" y="500" width="273" height="160" r="5" rx="5" ry="5" fill="#2cbe15" stroke="#666f15" transform="matrix(1,0,0,1,-136.5,-80)" style="opacity: 0.5;" stroke-width="9" opacity="0.5"></rect><rect x="582" y="17" width="139" height="128" r="5" rx="5" ry="5" fill="#2cbe15" stroke="#666f15" transform="matrix(1,0,0,1,-69.5,-64)" style="opacity: 0.5;" stroke-width="9" opacity="0.5"></rect><rect x="109" y="262" width="170" height="140" r="5" rx="5" ry="5" fill="#2cbe15" stroke="#666f15" transform="matrix(1,0,0,1,-85,-70)" style="opacity: 0.5;" stroke-width="9" opacity="0.5"></rect><rect x="98" y="350" width="232" height="274" r="5" rx="5" ry="5" fill="#2cbe15" stroke="#666f15" transform="matrix(1,0,0,1,-116,-137)" style="opacity: 0.5;" stroke-width="9" opacity="0.5"></rect><rect x="487" y="555" width="63" height="292" r="5" rx="5" ry="5" fill="#2cbe15" stroke="#666f15" transform="matrix(1,0,0,1,-31.5,-146)" style="opacity: 0.5;" stroke-width="9" opacity="0.5"></rect><rect x="54" y="164" width="313" height="182" r="5" rx="5" ry="5" fill="#2cbe15" stroke="#666f15" transform="matrix(1,0,0,1,-156.5,-91)" style="opacity: 0.5;" stroke-width="9" opacity="0.5"></rect><rect x="-19" y="-80" width="110" height="199" r="5" rx="5" ry="5" fill="#2cbe15" stroke="#666f15" transform="matrix(1,0,0,1,-55,-99.5)" style="opacity: 0.5;" stroke-width="9" opacity="0.5"></rect><rect x="237" y="129" width="187" height="73" r="5" rx="5" ry="5" fill="#2cbe15" stroke="#666f15" transform="matrix(1,0,0,1,-93.5,-36.5)" style="opacity: 0.5;" stroke-width="9" opacity="0.5"></rect><rect x="349" y="514" width="156" height="143" r="5" rx="5" ry="5" fill="#2cbe15" stroke="#666f15" transform="matrix(1,0,0,1,-78,-71.5)" style="opacity: 0.5;" stroke-width="9" opacity="0.5"></rect><rect x="493" y="-10" width="130" height="304" r="5" rx="5" ry="5" fill="#2cbe15" stroke="#666f15" transform="matrix(1,0,0,1,-65,-152)" style="opacity: 0.5;" stroke-width="9" opacity="0.5"></rect><rect x="524" y="92" width="115" height="91" r="5" rx="5" ry="5" fill="#2cbe15" stroke="#666f15" transform="matrix(1,0,0,1,-57.5,-45.5)" style="opacity: 0.5;" stroke-width="9" opacity="0.5"></rect><rect x="371" y="337" width="99" height="267" r="5" rx="5" ry="5" fill="#2cbe15" stroke="#666f15" transform="matrix(1,0,0,1,-49.5,-133.5)" style="opacity: 0.5;" stroke-width="9" opacity="0.5"></rect><rect x="419" y="377" width="121" height="39" r="5" rx="5" ry="5" fill="#2cbe15" stroke="#666f15" transform="matrix(1,0,0,1,-60.5,-19.5)" style="opacity: 0.5;" stroke-width="9" opacity="0.5"></rect><rect x="271" y="118" width="111" height="169" r="5" rx="5" ry="5" fill="#2cbe15" stroke="#666f15" transform="matrix(1,0,0,1,-55.5,-84.5)" style="opacity: 0.5;" stroke-width="9" opacity="0.5"></rect><rect x="207" y="-65" width="161" height="302" r="5" rx="5" ry="5" fill="#2cbe15" stroke="#666f15" transform="matrix(1,0,0,1,-80.5,-151)" style="opacity: 0.5;" stroke-width="9" opacity="0.5"></rect><rect x="461" y="543" width="29" height="153" r="5" rx="5" ry="5" fill="#2cbe15" stroke="#666f15" transform="matrix(1,0,0,1,-14.5,-76.5)" style="opacity: 0.5;" stroke-width="9" opacity="0.5"></rect><rect x="566" y="158" width="39" height="311" r="5" rx="5" ry="5" fill="#2cbe15" stroke="#666f15" transform="matrix(1,0,0,1,-19.5,-155.5)" style="opacity: 0.5;" stroke-width="9" opacity="0.5"></rect><rect x="645" y="179" width="258" height="33" r="5" rx="5" ry="5" fill="#2cbe15" stroke="#666f15" transform="matrix(1,0,0,1,-129,-16.5)" style="opacity: 0.5;" stroke-width="9" opacity="0.5"></rect><rect x="6" y="342" width="81" height="239" r="5" rx="5" ry="5" fill="#2cbe15" stroke="#666f15" transform="matrix(1,0,0,1,-40.5,-119.5)" style="opacity: 0.5;" stroke-width="9" opacity="0.5"></rect><rect x="-46" y="318" width="194" height="150" r="5" rx="5" ry="5" fill="#2cbe15" stroke="#666f15" transform="matrix(1,0,0,1,-97,-75)" style="opacity: 0.5;" stroke-width="9" opacity="0.5"></rect><rect x="20" y="134" width="254" height="285" r="5" rx="5" ry="5" fill="#2cbe15" stroke="#666f15" transform="matrix(1,0,0,1,-127,-142.5)" style="opacity: 0.5;" stroke-width="9" opacity="0.5"></rect><rect x="386" y="-89" width="210" height="84" r="5" rx="5" ry="5" fill="#2cbe15" stroke="#666f15" transform="matrix(1,0,0,1,-105,-42)" style="opacity: 0.5;" stroke-width="9" opacity="0.5"></rect><rect x="608" y="510" width="127" height="280" r="5" rx="5" ry="5" fill="#2cbe15" stroke="#666f15" transform="matrix(1,0,0,1,-63.5,-140)" style="opacity: 0.5;" stroke-width="9" opacity="0.5"></rect><rect x="-2" y="458" width="170" height="170" r="5" rx="5" ry="5" fill="#2cbe15" stroke="#666f15" transform="matrix(1,0,0,1,-85,-85)" style="opacity: 0.5;" stroke-width="9" opacity="0.5"></rect><rect x="652" y="416" width="55" height="70" r="5" rx="5" ry="5" fill="#2cbe15" stroke="#666f15" transform="matrix(1,0,0,1,-27.5,-35)" style="opacity: 0.5;" stroke-width="9" opacity="0.5"></rect><rect x="167" y="449" width="53" height="206" r="5" rx="5" ry="5" fill="#2cbe15" stroke="#666f15" transform="matrix(1,0,0,1,-26.5,-103)" style="opacity: 0.5;" stroke-width="9" opacity="0.5"></rect><rect x="679" y="4" width="269" height="278" r="5" rx="5" ry="5" fill="#2cbe15" stroke="#666f15" transform="matrix(1,0,0,1,-134.5,-139)" style="opacity: 0.5;" stroke-width="9" opacity="0.5"></rect><rect x="71" y="41" width="320" height="90" r="5" rx="5" ry="5" fill="#2cbe15" stroke="#666f15" transform="matrix(1,0,0,1,-160,-45)" style="opacity: 0.5;" stroke-width="9" opacity="0.5"></rect><rect x="10" y="349" width="180" height="231" r="5" rx="5" ry="5" fill="#2cbe15" stroke="#666f15" transform="matrix(1,0,0,1,-90,-115.5)" style="opacity: 0.5;" stroke-width="9" opacity="0.5"></rect><rect x="520" y="461" width="176" height="220" r="5" rx="5" ry="5" fill="#2cbe15" stroke="#666f15" transform="matrix(1,0,0,1,-88,-110)" style="opacity: 0.5;" stroke-width="9" opacity="0.5"></rect><rect x="559" y="525" width="223" height="265" r="5" rx="5" ry="5" fill="#2cbe15" stroke="#666f15" transform="matrix(1,0,0,1,-111.5,-132.5)" style="opacity: 0.5;" stroke-width="9" opacity="0.5"></rect><rect x="276" y="477" width="35" height="207" r="5" rx="5" ry="5" fill="#2cbe15" stroke="#666f15" transform="matrix(1,0,0,1,-17.5,-103.5)" style="opacity: 0.5;" stroke-width="9" opacity="0.5"></rect></svg>