<svg height="480" version="1.1" width="640" xmlns="http://www.w3.org/2000/svg" style="overflow: hidden; position: relative; top: -0.316666px;"><desc>Created with Raphaël 2.0.1</desc><defs></defs><rect x="0" y="0" width="640" height="480" r="0" rx="0" ry="0" fill="#a5a76e" stroke="none" style=""></rect><rect x="397" y="338" width="295" height="23" r="5" rx="5" ry="5" fill="#28c0b7" stroke="#efe776" transform="matrix(1,0,0,1,-147.5,-11.5)" style="opacity: 0.94;" stroke-width="6" opacity="0.94"></rect><rect x="510" y="82" width="215" height="38" r="5" rx="5" ry="5" fill="#28c0b7" stroke="#efe776" transform="matrix(1,0,0,1,-107.5,-19)" style="opacity: 0.94;" stroke-width="6" opacity="0.94"></rect><rect x="515" y="241" width="149" height="158" r="5" rx="5" ry="5" fill="#28c0b7" stroke="#efe776" transform="matrix(1,0,0,1,-74.5,-79)" style="opacity: 0.94;" stroke-width="6" opacity="0.94"></rect><rect x="526" y="300" width="65" height="209" r="5" rx="5" ry="5" fill="#28c0b7" stroke="#efe776" transform="matrix(1,0,0,1,-32.5,-104.5)" style="opacity: 0.94;" stroke-width="6" opacity="0.94"></rect><rect x="254" y="384" width="201" height="44" r="5" rx="5" ry="5" fill="#28c0b7" stroke="#efe776" transform="matrix(1,0,0,1,-100.5,-22)" style="opacity: 0.94;" stroke-width="6" opacity="0.94"></rect><rect x="306" y="266" width="86" height="91" r="5" rx="5" ry="5" fill="#28c0b7" stroke="#efe776" transform="matrix(1,0,0,1,-43,-45.5)" style="opacity: 0.94;" stroke-width="6" opacity="0.94"></rect><rect x="318" y="254" width="278" height="98" r="5" rx="5" ry="5" fill="#28c0b7" stroke="#efe776" transform="matrix(1,0,0,1,-139,-49)" style="opacity: 0.94;" stroke-width="6" opacity="0.94"></rect><rect x="202" y="251" width="77" height="220" r="5" rx="5" ry="5" fill="#28c0b7" stroke="#efe776" transform="matrix(1,0,0,1,-38.5,-110)" style="opacity: 0.94;" stroke-width="6" opacity="0.94"></rect><rect x="479" y="374" width="46" height="218" r="5" rx="5" ry="5" fill="#28c0b7" stroke="#efe776" transform="matrix(1,0,0,1,-23,-109)" style="opacity: 0.94;" stroke-width="6" opacity="0.94"></rect><rect x="458" y="273" width="146" height="249" r="5" rx="5" ry="5" fill="#28c0b7" stroke="#efe776" transform="matrix(1,0,0,1,-73,-124.5)" style="opacity: 0.94;" stroke-width="6" opacity="0.94"></rect><rect x="509" y="182" width="238" height="166" r="5" rx="5" ry="5" fill="#28c0b7" stroke="#efe776" transform="matrix(1,0,0,1,-119,-83)" style="opacity: 0.94;" stroke-width="6" opacity="0.94"></rect><rect x="193" y="335" width="184" height="216" r="5" rx="5" ry="5" fill="#28c0b7" stroke="#efe776" transform="matrix(1,0,0,1,-92,-108)" style="opacity: 0.94;" stroke-width="6" opacity="0.94"></rect><rect x="326" y="75" width="283" height="208" r="5" rx="5" ry="5" fill="#28c0b7" stroke="#efe776" transform="matrix(1,0,0,1,-141.5,-104)" style="opacity: 0.94;" stroke-width="6" opacity="0.94"></rect><rect x="226" y="78" width="118" height="161" r="5" rx="5" ry="5" fill="#28c0b7" stroke="#efe776" transform="matrix(1,0,0,1,-59,-80.5)" style="opacity: 0.94;" stroke-width="6" opacity="0.94"></rect><rect x="411" y="75" width="239" height="234" r="5" rx="5" ry="5" fill="#28c0b7" stroke="#efe776" transform="matrix(1,0,0,1,-119.5,-117)" style="opacity: 0.94;" stroke-width="6" opacity="0.94"></rect><rect x="213" y="124" width="300" height="79" r="5" rx="5" ry="5" fill="#28c0b7" stroke="#efe776" transform="matrix(1,0,0,1,-150,-39.5)" style="opacity: 0.94;" stroke-width="6" opacity="0.94"></rect><rect x="155" y="241" width="59" height="166" r="5" rx="5" ry="5" fill="#28c0b7" stroke="#efe776" transform="matrix(1,0,0,1,-29.5,-83)" style="opacity: 0.94;" stroke-width="6" opacity="0.94"></rect></svg>