<svg height="480" version="1.1" width="640" xmlns="http://www.w3.org/2000/svg" style="overflow: hidden; position: relative; top: -0.316666px;"><desc>Created with Raphaël 2.0.1</desc><defs></defs><rect x="0" y="0" width="640" height="480" r="0" rx="0" ry="0" fill="#f3f072" stroke="none" style=""></rect><rect x="514" y="246" width="110" height="147" r="5" rx="5" ry="5" fill="#f49d8c" stroke="#ef808d" transform="matrix(1,0,0,1,-55,-73.5)" style="opacity: 0.73;" stroke-width="3" opacity="0.73"></rect><rect x="544" y="181" width="127" height="230" r="5" rx="5" ry="5" fill="#f49d8c" stroke="#ef808d" transform="matrix(1,0,0,1,-63.5,-115)" style="opacity: 0.73;" stroke-width="3" opacity="0.73"></rect><rect x="189" y="139" width="183" height="107" r="5" rx="5" ry="5" fill="#f49d8c" stroke="#ef808d" transform="matrix(1,0,0,1,-91.5,-53.5)" style="opacity: 0.73;" stroke-width="3" opacity="0.73"></rect><rect x="350" y="227" width="101" height="307" r="5" rx="5" ry="5" fill="#f49d8c" stroke="#ef808d" transform="matrix(1,0,0,1,-50.5,-153.5)" style="opacity: 0.73;" stroke-width="3" opacity="0.73"></rect><rect x="208" y="296" width="226" height="195" r="5" rx="5" ry="5" fill="#f49d8c" stroke="#ef808d" transform="matrix(1,0,0,1,-113,-97.5)" style="opacity: 0.73;" stroke-width="3" opacity="0.73"></rect><rect x="440" y="160" width="20" height="307" r="5" rx="5" ry="5" fill="#f49d8c" stroke="#ef808d" transform="matrix(1,0,0,1,-10,-153.5)" style="opacity: 0.73;" stroke-width="3" opacity="0.73"></rect><rect x="275" y="342" width="218" height="204" r="5" rx="5" ry="5" fill="#f49d8c" stroke="#ef808d" transform="matrix(1,0,0,1,-109,-102)" style="opacity: 0.73;" stroke-width="3" opacity="0.73"></rect><rect x="451" y="272" width="209" height="100" r="5" rx="5" ry="5" fill="#f49d8c" stroke="#ef808d" transform="matrix(1,0,0,1,-104.5,-50)" style="opacity: 0.73;" stroke-width="3" opacity="0.73"></rect><rect x="152" y="292" width="99" height="296" r="5" rx="5" ry="5" fill="#f49d8c" stroke="#ef808d" transform="matrix(1,0,0,1,-49.5,-148)" style="opacity: 0.73;" stroke-width="3" opacity="0.73"></rect><rect x="305" y="344" width="27" height="162" r="5" rx="5" ry="5" fill="#f49d8c" stroke="#ef808d" transform="matrix(1,0,0,1,-13.5,-81)" style="opacity: 0.73;" stroke-width="3" opacity="0.73"></rect><rect x="361" y="188" width="171" height="28" r="5" rx="5" ry="5" fill="#f49d8c" stroke="#ef808d" transform="matrix(1,0,0,1,-85.5,-14)" style="opacity: 0.73;" stroke-width="3" opacity="0.73"></rect><rect x="118" y="195" width="131" height="111" r="5" rx="5" ry="5" fill="#f49d8c" stroke="#ef808d" transform="matrix(1,0,0,1,-65.5,-55.5)" style="opacity: 0.73;" stroke-width="3" opacity="0.73"></rect><rect x="423" y="171" width="192" height="127" r="5" rx="5" ry="5" fill="#f49d8c" stroke="#ef808d" transform="matrix(1,0,0,1,-96,-63.5)" style="opacity: 0.73;" stroke-width="3" opacity="0.73"></rect><rect x="636" y="283" width="313" height="92" r="5" rx="5" ry="5" fill="#f49d8c" stroke="#ef808d" transform="matrix(1,0,0,1,-156.5,-46)" style="opacity: 0.73;" stroke-width="3" opacity="0.73"></rect><rect x="271" y="127" width="208" height="136" r="5" rx="5" ry="5" fill="#f49d8c" stroke="#ef808d" transform="matrix(1,0,0,1,-104,-68)" style="opacity: 0.73;" stroke-width="3" opacity="0.73"></rect><rect x="7" y="285" width="294" height="291" r="5" rx="5" ry="5" fill="#f49d8c" stroke="#ef808d" transform="matrix(1,0,0,1,-147,-145.5)" style="opacity: 0.73;" stroke-width="3" opacity="0.73"></rect><rect x="532" y="376" width="88" height="284" r="5" rx="5" ry="5" fill="#f49d8c" stroke="#ef808d" transform="matrix(1,0,0,1,-44,-142)" style="opacity: 0.73;" stroke-width="3" opacity="0.73"></rect><rect x="438" y="283" width="180" height="93" r="5" rx="5" ry="5" fill="#f49d8c" stroke="#ef808d" transform="matrix(1,0,0,1,-90,-46.5)" style="opacity: 0.73;" stroke-width="3" opacity="0.73"></rect><rect x="601" y="177" width="117" height="91" r="5" rx="5" ry="5" fill="#f49d8c" stroke="#ef808d" transform="matrix(1,0,0,1,-58.5,-45.5)" style="opacity: 0.73;" stroke-width="3" opacity="0.73"></rect><rect x="582" y="263" width="134" height="189" r="5" rx="5" ry="5" fill="#f49d8c" stroke="#ef808d" transform="matrix(1,0,0,1,-67,-94.5)" style="opacity: 0.73;" stroke-width="3" opacity="0.73"></rect><rect x="355" y="263" width="71" height="297" r="5" rx="5" ry="5" fill="#f49d8c" stroke="#ef808d" transform="matrix(1,0,0,1,-35.5,-148.5)" style="opacity: 0.73;" stroke-width="3" opacity="0.73"></rect><rect x="157" y="169" width="56" height="50" r="5" rx="5" ry="5" fill="#f49d8c" stroke="#ef808d" transform="matrix(1,0,0,1,-28,-25)" style="opacity: 0.73;" stroke-width="3" opacity="0.73"></rect><rect x="699" y="229" width="105" height="199" r="5" rx="5" ry="5" fill="#f49d8c" stroke="#ef808d" transform="matrix(1,0,0,1,-52.5,-99.5)" style="opacity: 0.73;" stroke-width="3" opacity="0.73"></rect><rect x="469" y="320" width="46" height="161" r="5" rx="5" ry="5" fill="#f49d8c" stroke="#ef808d" transform="matrix(1,0,0,1,-23,-80.5)" style="opacity: 0.73;" stroke-width="3" opacity="0.73"></rect><rect x="255" y="346" width="164" height="232" r="5" rx="5" ry="5" fill="#f49d8c" stroke="#ef808d" transform="matrix(1,0,0,1,-82,-116)" style="opacity: 0.73;" stroke-width="3" opacity="0.73"></rect><rect x="81" y="156" width="74" height="227" r="5" rx="5" ry="5" fill="#f49d8c" stroke="#ef808d" transform="matrix(1,0,0,1,-37,-113.5)" style="opacity: 0.73;" stroke-width="3" opacity="0.73"></rect><rect x="162" y="251" width="30" height="39" r="5" rx="5" ry="5" fill="#f49d8c" stroke="#ef808d" transform="matrix(1,0,0,1,-15,-19.5)" style="opacity: 0.73;" stroke-width="3" opacity="0.73"></rect><rect x="-23" y="273" width="70" height="221" r="5" rx="5" ry="5" fill="#f49d8c" stroke="#ef808d" transform="matrix(1,0,0,1,-35,-110.5)" style="opacity: 0.73;" stroke-width="3" opacity="0.73"></rect><rect x="482" y="261" width="41" height="256" r="5" rx="5" ry="5" fill="#f49d8c" stroke="#ef808d" transform="matrix(1,0,0,1,-20.5,-128)" style="opacity: 0.73;" stroke-width="3" opacity="0.73"></rect><rect x="511" y="154" width="271" height="258" r="5" rx="5" ry="5" fill="#f49d8c" stroke="#ef808d" transform="matrix(1,0,0,1,-135.5,-129)" style="opacity: 0.73;" stroke-width="3" opacity="0.73"></rect><rect x="146" y="375" width="87" height="153" r="5" rx="5" ry="5" fill="#f49d8c" stroke="#ef808d" transform="matrix(1,0,0,1,-43.5,-76.5)" style="opacity: 0.73;" stroke-width="3" opacity="0.73"></rect><rect x="452" y="372" width="99" height="317" r="5" rx="5" ry="5" fill="#f49d8c" stroke="#ef808d" transform="matrix(1,0,0,1,-49.5,-158.5)" style="opacity: 0.73;" stroke-width="3" opacity="0.73"></rect><rect x="657" y="184" width="294" height="290" r="5" rx="5" ry="5" fill="#f49d8c" stroke="#ef808d" transform="matrix(1,0,0,1,-147,-145)" style="opacity: 0.73;" stroke-width="3" opacity="0.73"></rect><rect x="105" y="274" width="197" height="54" r="5" rx="5" ry="5" fill="#f49d8c" stroke="#ef808d" transform="matrix(1,0,0,1,-98.5,-27)" style="opacity: 0.73;" stroke-width="3" opacity="0.73"></rect><rect x="611" y="137" width="153" height="156" r="5" rx="5" ry="5" fill="#f49d8c" stroke="#ef808d" transform="matrix(1,0,0,1,-76.5,-78)" style="opacity: 0.73;" stroke-width="3" opacity="0.73"></rect><rect x="178" y="134" width="153" height="86" r="5" rx="5" ry="5" fill="#f49d8c" stroke="#ef808d" transform="matrix(1,0,0,1,-76.5,-43)" style="opacity: 0.73;" stroke-width="3" opacity="0.73"></rect><rect x="341" y="216" width="310" height="117" r="5" rx="5" ry="5" fill="#f49d8c" stroke="#ef808d" transform="matrix(1,0,0,1,-155,-58.5)" style="opacity: 0.73;" stroke-width="3" opacity="0.73"></rect><rect x="376" y="252" width="117" height="129" r="5" rx="5" ry="5" fill="#f49d8c" stroke="#ef808d" transform="matrix(1,0,0,1,-58.5,-64.5)" style="opacity: 0.73;" stroke-width="3" opacity="0.73"></rect><rect x="52" y="113" width="223" height="302" r="5" rx="5" ry="5" fill="#f49d8c" stroke="#ef808d" transform="matrix(1,0,0,1,-111.5,-151)" style="opacity: 0.73;" stroke-width="3" opacity="0.73"></rect></svg>