<svg height="480" version="1.1" width="640" xmlns="http://www.w3.org/2000/svg" style="overflow: hidden; position: relative; top: -0.316666px;"><desc>Created with Raphaël 2.0.1</desc><defs></defs><rect x="0" y="0" width="640" height="480" r="0" rx="0" ry="0" fill="none" stroke="none" style=""></rect><rect x="174" y="415" width="261" height="250" r="5" rx="5" ry="5" fill="#3d4776" stroke="#715437" transform="matrix(1,0,0,1,-130.5,-125)" style="opacity: 0.8;" stroke-width="14" opacity="0.8"></rect><rect x="510" y="142" width="85" height="161" r="5" rx="5" ry="5" fill="#3d4776" stroke="#715437" transform="matrix(1,0,0,1,-42.5,-80.5)" style="opacity: 0.8;" stroke-width="14" opacity="0.8"></rect><rect x="177" y="381" width="138" height="306" r="5" rx="5" ry="5" fill="#3d4776" stroke="#715437" transform="matrix(1,0,0,1,-69,-153)" style="opacity: 0.8;" stroke-width="14" opacity="0.8"></rect><rect x="210" y="159" width="122" height="159" r="5" rx="5" ry="5" fill="#3d4776" stroke="#715437" transform="matrix(1,0,0,1,-61,-79.5)" style="opacity: 0.8;" stroke-width="14" opacity="0.8"></rect><rect x="-31" y="221" width="72" height="174" r="5" rx="5" ry="5" fill="#3d4776" stroke="#715437" transform="matrix(1,0,0,1,-36,-87)" style="opacity: 0.8;" stroke-width="14" opacity="0.8"></rect><rect x="537" y="426" width="128" height="68" r="5" rx="5" ry="5" fill="#3d4776" stroke="#715437" transform="matrix(1,0,0,1,-64,-34)" style="opacity: 0.8;" stroke-width="14" opacity="0.8"></rect><rect x="680" y="117" width="195" height="234" r="5" rx="5" ry="5" fill="#3d4776" stroke="#715437" transform="matrix(1,0,0,1,-97.5,-117)" style="opacity: 0.8;" stroke-width="14" opacity="0.8"></rect><rect x="224" y="268" width="244" height="143" r="5" rx="5" ry="5" fill="#3d4776" stroke="#715437" transform="matrix(1,0,0,1,-122,-71.5)" style="opacity: 0.8;" stroke-width="14" opacity="0.8"></rect><rect x="614" y="314" width="220" height="147" r="5" rx="5" ry="5" fill="#3d4776" stroke="#715437" transform="matrix(1,0,0,1,-110,-73.5)" style="opacity: 0.8;" stroke-width="14" opacity="0.8"></rect><rect x="394" y="228" width="41" height="41" r="5" rx="5" ry="5" fill="#3d4776" stroke="#715437" transform="matrix(1,0,0,1,-20.5,-20.5)" style="opacity: 0.8;" stroke-width="14" opacity="0.8"></rect><rect x="76" y="398" width="204" height="30" r="5" rx="5" ry="5" fill="#3d4776" stroke="#715437" transform="matrix(1,0,0,1,-102,-15)" style="opacity: 0.8;" stroke-width="14" opacity="0.8"></rect><rect x="7" y="21" width="236" height="293" r="5" rx="5" ry="5" fill="#3d4776" stroke="#715437" transform="matrix(1,0,0,1,-118,-146.5)" style="opacity: 0.8;" stroke-width="14" opacity="0.8"></rect><rect x="544" y="296" width="149" height="140" r="5" rx="5" ry="5" fill="#3d4776" stroke="#715437" transform="matrix(1,0,0,1,-74.5,-70)" style="opacity: 0.8;" stroke-width="14" opacity="0.8"></rect><rect x="-29" y="268" width="122" height="61" r="5" rx="5" ry="5" fill="#3d4776" stroke="#715437" transform="matrix(1,0,0,1,-61,-30.5)" style="opacity: 0.8;" stroke-width="14" opacity="0.8"></rect><rect x="351" y="270" width="263" height="147" r="5" rx="5" ry="5" fill="#3d4776" stroke="#715437" transform="matrix(1,0,0,1,-131.5,-73.5)" style="opacity: 0.8;" stroke-width="14" opacity="0.8"></rect><rect x="675" y="15" width="282" height="88" r="5" rx="5" ry="5" fill="#3d4776" stroke="#715437" transform="matrix(1,0,0,1,-141,-44)" style="opacity: 0.8;" stroke-width="14" opacity="0.8"></rect><rect x="-51" y="326" width="34" height="300" r="5" rx="5" ry="5" fill="#3d4776" stroke="#715437" transform="matrix(1,0,0,1,-17,-150)" style="opacity: 0.8;" stroke-width="14" opacity="0.8"></rect><rect x="310" y="279" width="286" height="32" r="5" rx="5" ry="5" fill="#3d4776" stroke="#715437" transform="matrix(1,0,0,1,-143,-16)" style="opacity: 0.8;" stroke-width="14" opacity="0.8"></rect><rect x="692" y="329" width="307" height="241" r="5" rx="5" ry="5" fill="#3d4776" stroke="#715437" transform="matrix(1,0,0,1,-153.5,-120.5)" style="opacity: 0.8;" stroke-width="14" opacity="0.8"></rect><rect x="435" y="260" width="301" height="228" r="5" rx="5" ry="5" fill="#3d4776" stroke="#715437" transform="matrix(1,0,0,1,-150.5,-114)" style="opacity: 0.8;" stroke-width="14" opacity="0.8"></rect><rect x="283" y="231" width="133" height="208" r="5" rx="5" ry="5" fill="#3d4776" stroke="#715437" transform="matrix(1,0,0,1,-66.5,-104)" style="opacity: 0.8;" stroke-width="14" opacity="0.8"></rect><rect x="150" y="29" width="142" height="200" r="5" rx="5" ry="5" fill="#3d4776" stroke="#715437" transform="matrix(1,0,0,1,-71,-100)" style="opacity: 0.8;" stroke-width="14" opacity="0.8"></rect><rect x="557" y="97" width="27" height="312" r="5" rx="5" ry="5" fill="#3d4776" stroke="#715437" transform="matrix(1,0,0,1,-13.5,-156)" style="opacity: 0.8;" stroke-width="14" opacity="0.8"></rect><rect x="378" y="241" width="246" height="162" r="5" rx="5" ry="5" fill="#3d4776" stroke="#715437" transform="matrix(1,0,0,1,-123,-81)" style="opacity: 0.8;" stroke-width="14" opacity="0.8"></rect><rect x="36" y="435" width="132" height="237" r="5" rx="5" ry="5" fill="#3d4776" stroke="#715437" transform="matrix(1,0,0,1,-66,-118.5)" style="opacity: 0.8;" stroke-width="14" opacity="0.8"></rect><rect x="309" y="328" width="168" height="144" r="5" rx="5" ry="5" fill="#3d4776" stroke="#715437" transform="matrix(1,0,0,1,-84,-72)" style="opacity: 0.8;" stroke-width="14" opacity="0.8"></rect><rect x="495" y="331" width="24" height="121" r="5" rx="5" ry="5" fill="#3d4776" stroke="#715437" transform="matrix(1,0,0,1,-12,-60.5)" style="opacity: 0.8;" stroke-width="14" opacity="0.8"></rect><rect x="146" y="145" width="132" height="309" r="5" rx="5" ry="5" fill="#3d4776" stroke="#715437" transform="matrix(1,0,0,1,-66,-154.5)" style="opacity: 0.8;" stroke-width="14" opacity="0.8"></rect><rect x="590" y="458" width="311" height="317" r="5" rx="5" ry="5" fill="#3d4776" stroke="#715437" transform="matrix(1,0,0,1,-155.5,-158.5)" style="opacity: 0.8;" stroke-width="14" opacity="0.8"></rect><rect x="442" y="130" width="43" height="318" r="5" rx="5" ry="5" fill="#3d4776" stroke="#715437" transform="matrix(1,0,0,1,-21.5,-159)" style="opacity: 0.8;" stroke-width="14" opacity="0.8"></rect><rect x="145" y="329" width="224" height="148" r="5" rx="5" ry="5" fill="#3d4776" stroke="#715437" transform="matrix(1,0,0,1,-112,-74)" style="opacity: 0.8;" stroke-width="14" opacity="0.8"></rect><rect x="363" y="227" width="272" height="166" r="5" rx="5" ry="5" fill="#3d4776" stroke="#715437" transform="matrix(1,0,0,1,-136,-83)" style="opacity: 0.8;" stroke-width="14" opacity="0.8"></rect><rect x="518" y="341" width="152" height="197" r="5" rx="5" ry="5" fill="#3d4776" stroke="#715437" transform="matrix(1,0,0,1,-76,-98.5)" style="opacity: 0.8;" stroke-width="14" opacity="0.8"></rect><rect x="441" y="240" width="41" height="39" r="5" rx="5" ry="5" fill="#3d4776" stroke="#715437" transform="matrix(1,0,0,1,-20.5,-19.5)" style="opacity: 0.8;" stroke-width="14" opacity="0.8"></rect><rect x="188" y="378" width="231" height="250" r="5" rx="5" ry="5" fill="#3d4776" stroke="#715437" transform="matrix(1,0,0,1,-115.5,-125)" style="opacity: 0.8;" stroke-width="14" opacity="0.8"></rect><rect x="524" y="171" width="144" height="114" r="5" rx="5" ry="5" fill="#3d4776" stroke="#715437" transform="matrix(1,0,0,1,-72,-57)" style="opacity: 0.8;" stroke-width="14" opacity="0.8"></rect><rect x="656" y="81" width="105" height="193" r="5" rx="5" ry="5" fill="#3d4776" stroke="#715437" transform="matrix(1,0,0,1,-52.5,-96.5)" style="opacity: 0.8;" stroke-width="14" opacity="0.8"></rect><rect x="544" y="422" width="222" height="39" r="5" rx="5" ry="5" fill="#3d4776" stroke="#715437" transform="matrix(1,0,0,1,-111,-19.5)" style="opacity: 0.8;" stroke-width="14" opacity="0.8"></rect><rect x="-30" y="437" width="250" height="193" r="5" rx="5" ry="5" fill="#3d4776" stroke="#715437" transform="matrix(1,0,0,1,-125,-96.5)" style="opacity: 0.8;" stroke-width="14" opacity="0.8"></rect><rect x="300" y="355" width="220" height="33" r="5" rx="5" ry="5" fill="#3d4776" stroke="#715437" transform="matrix(1,0,0,1,-110,-16.5)" style="opacity: 0.8;" stroke-width="14" opacity="0.8"></rect><rect x="1" y="395" width="232" height="134" r="5" rx="5" ry="5" fill="#3d4776" stroke="#715437" transform="matrix(1,0,0,1,-116,-67)" style="opacity: 0.8;" stroke-width="14" opacity="0.8"></rect><rect x="554" y="378" width="250" height="141" r="5" rx="5" ry="5" fill="#3d4776" stroke="#715437" transform="matrix(1,0,0,1,-125,-70.5)" style="opacity: 0.8;" stroke-width="14" opacity="0.8"></rect><rect x="499" y="127" width="200" height="35" r="5" rx="5" ry="5" fill="#3d4776" stroke="#715437" transform="matrix(1,0,0,1,-100,-17.5)" style="opacity: 0.8;" stroke-width="14" opacity="0.8"></rect><rect x="420" y="468" width="287" height="88" r="5" rx="5" ry="5" fill="#3d4776" stroke="#715437" transform="matrix(1,0,0,1,-143.5,-44)" style="opacity: 0.8;" stroke-width="14" opacity="0.8"></rect><rect x="-9" y="114" width="281" height="171" r="5" rx="5" ry="5" fill="#3d4776" stroke="#715437" transform="matrix(1,0,0,1,-140.5,-85.5)" style="opacity: 0.8;" stroke-width="14" opacity="0.8"></rect><rect x="279" y="295" width="74" height="48" r="5" rx="5" ry="5" fill="#3d4776" stroke="#715437" transform="matrix(1,0,0,1,-37,-24)" style="opacity: 0.8;" stroke-width="14" opacity="0.8"></rect><rect x="245" y="167" width="28" height="165" r="5" rx="5" ry="5" fill="#3d4776" stroke="#715437" transform="matrix(1,0,0,1,-14,-82.5)" style="opacity: 0.8;" stroke-width="14" opacity="0.8"></rect><rect x="254" y="366" width="67" height="28" r="5" rx="5" ry="5" fill="#3d4776" stroke="#715437" transform="matrix(1,0,0,1,-33.5,-14)" style="opacity: 0.8;" stroke-width="14" opacity="0.8"></rect><rect x="-9" y="379" width="110" height="260" r="5" rx="5" ry="5" fill="#3d4776" stroke="#715437" transform="matrix(1,0,0,1,-55,-130)" style="opacity: 0.8;" stroke-width="14" opacity="0.8"></rect><rect x="281" y="109" width="242" height="176" r="5" rx="5" ry="5" fill="#3d4776" stroke="#715437" transform="matrix(1,0,0,1,-121,-88)" style="opacity: 0.8;" stroke-width="14" opacity="0.8"></rect><rect x="253" y="106" width="159" height="70" r="5" rx="5" ry="5" fill="#3d4776" stroke="#715437" transform="matrix(1,0,0,1,-79.5,-35)" style="opacity: 0.8;" stroke-width="14" opacity="0.8"></rect><rect x="708" y="282" width="104" height="201" r="5" rx="5" ry="5" fill="#3d4776" stroke="#715437" transform="matrix(1,0,0,1,-52,-100.5)" style="opacity: 0.8;" stroke-width="14" opacity="0.8"></rect><rect x="118" y="180" width="269" height="164" r="5" rx="5" ry="5" fill="#3d4776" stroke="#715437" transform="matrix(1,0,0,1,-134.5,-82)" style="opacity: 0.8;" stroke-width="14" opacity="0.8"></rect><rect x="241" y="288" width="280" height="144" r="5" rx="5" ry="5" fill="#3d4776" stroke="#715437" transform="matrix(1,0,0,1,-140,-72)" style="opacity: 0.8;" stroke-width="14" opacity="0.8"></rect><rect x="596" y="433" width="27" height="76" r="5" rx="5" ry="5" fill="#3d4776" stroke="#715437" transform="matrix(1,0,0,1,-13.5,-38)" style="opacity: 0.8;" stroke-width="14" opacity="0.8"></rect><rect x="83" y="343" width="145" height="22" r="5" rx="5" ry="5" fill="#3d4776" stroke="#715437" transform="matrix(1,0,0,1,-72.5,-11)" style="opacity: 0.8;" stroke-width="14" opacity="0.8"></rect><rect x="678" y="433" width="196" height="190" r="5" rx="5" ry="5" fill="#3d4776" stroke="#715437" transform="matrix(1,0,0,1,-98,-95)" style="opacity: 0.8;" stroke-width="14" opacity="0.8"></rect><rect x="211" y="41" width="233" height="289" r="5" rx="5" ry="5" fill="#3d4776" stroke="#715437" transform="matrix(1,0,0,1,-116.5,-144.5)" style="opacity: 0.8;" stroke-width="14" opacity="0.8"></rect><rect x="166" y="253" width="36" height="79" r="5" rx="5" ry="5" fill="#3d4776" stroke="#715437" transform="matrix(1,0,0,1,-18,-39.5)" style="opacity: 0.8;" stroke-width="14" opacity="0.8"></rect><rect x="-3" y="38" width="153" height="73" r="5" rx="5" ry="5" fill="#3d4776" stroke="#715437" transform="matrix(1,0,0,1,-76.5,-36.5)" style="opacity: 0.8;" stroke-width="14" opacity="0.8"></rect><rect x="278" y="384" width="217" height="180" r="5" rx="5" ry="5" fill="#3d4776" stroke="#715437" transform="matrix(1,0,0,1,-108.5,-90)" style="opacity: 0.8;" stroke-width="14" opacity="0.8"></rect><rect x="61" y="223" width="196" height="234" r="5" rx="5" ry="5" fill="#3d4776" stroke="#715437" transform="matrix(1,0,0,1,-98,-117)" style="opacity: 0.8;" stroke-width="14" opacity="0.8"></rect><rect x="474" y="213" width="221" height="138" r="5" rx="5" ry="5" fill="#3d4776" stroke="#715437" transform="matrix(1,0,0,1,-110.5,-69)" style="opacity: 0.8;" stroke-width="14" opacity="0.8"></rect><rect x="40" y="277" width="44" height="147" r="5" rx="5" ry="5" fill="#3d4776" stroke="#715437" transform="matrix(1,0,0,1,-22,-73.5)" style="opacity: 0.8;" stroke-width="14" opacity="0.8"></rect><rect x="538" y="390" width="196" height="26" r="5" rx="5" ry="5" fill="#3d4776" stroke="#715437" transform="matrix(1,0,0,1,-98,-13)" style="opacity: 0.8;" stroke-width="14" opacity="0.8"></rect></svg>