<svg height="480" version="1.1" width="640" xmlns="http://www.w3.org/2000/svg" style="overflow: hidden; position: relative; top: -0.316666px;"><desc>Created with Raphaël 2.0.1</desc><defs></defs><rect x="0" y="0" width="640" height="480" r="0" rx="0" ry="0" fill="#cc6cfa" stroke="none" style=""></rect><rect x="414" y="177" width="27" height="209" r="5" rx="5" ry="5" fill="#cbf4d4" stroke="#4528c7" transform="matrix(1,0,0,1,-13.5,-104.5)" style="opacity: 0.66;" stroke-width="17" opacity="0.66"></rect><rect x="326" y="-57" width="263" height="142" r="5" rx="5" ry="5" fill="#cbf4d4" stroke="#4528c7" transform="matrix(1,0,0,1,-131.5,-71)" style="opacity: 0.66;" stroke-width="17" opacity="0.66"></rect><rect x="321" y="278" width="250" height="166" r="5" rx="5" ry="5" fill="#cbf4d4" stroke="#4528c7" transform="matrix(1,0,0,1,-125,-83)" style="opacity: 0.66;" stroke-width="17" opacity="0.66"></rect><rect x="300" y="-19" width="81" height="73" r="5" rx="5" ry="5" fill="#cbf4d4" stroke="#4528c7" transform="matrix(1,0,0,1,-40.5,-36.5)" style="opacity: 0.66;" stroke-width="17" opacity="0.66"></rect><rect x="314" y="375" width="85" height="273" r="5" rx="5" ry="5" fill="#cbf4d4" stroke="#4528c7" transform="matrix(1,0,0,1,-42.5,-136.5)" style="opacity: 0.66;" stroke-width="17" opacity="0.66"></rect><rect x="194" y="62" width="90" height="134" r="5" rx="5" ry="5" fill="#cbf4d4" stroke="#4528c7" transform="matrix(1,0,0,1,-45,-67)" style="opacity: 0.66;" stroke-width="17" opacity="0.66"></rect><rect x="327" y="196" width="32" height="233" r="5" rx="5" ry="5" fill="#cbf4d4" stroke="#4528c7" transform="matrix(1,0,0,1,-16,-116.5)" style="opacity: 0.66;" stroke-width="17" opacity="0.66"></rect><rect x="229" y="435" width="73" height="107" r="5" rx="5" ry="5" fill="#cbf4d4" stroke="#4528c7" transform="matrix(1,0,0,1,-36.5,-53.5)" style="opacity: 0.66;" stroke-width="17" opacity="0.66"></rect><rect x="277" y="110" width="167" height="147" r="5" rx="5" ry="5" fill="#cbf4d4" stroke="#4528c7" transform="matrix(1,0,0,1,-83.5,-73.5)" style="opacity: 0.66;" stroke-width="17" opacity="0.66"></rect><rect x="439" y="35" width="66" height="105" r="5" rx="5" ry="5" fill="#cbf4d4" stroke="#4528c7" transform="matrix(1,0,0,1,-33,-52.5)" style="opacity: 0.66;" stroke-width="17" opacity="0.66"></rect><rect x="365" y="455" width="101" height="125" r="5" rx="5" ry="5" fill="#cbf4d4" stroke="#4528c7" transform="matrix(1,0,0,1,-50.5,-62.5)" style="opacity: 0.66;" stroke-width="17" opacity="0.66"></rect><rect x="354" y="131" width="57" height="125" r="5" rx="5" ry="5" fill="#cbf4d4" stroke="#4528c7" transform="matrix(1,0,0,1,-28.5,-62.5)" style="opacity: 0.66;" stroke-width="17" opacity="0.66"></rect><rect x="325" y="535" width="107" height="28" r="5" rx="5" ry="5" fill="#cbf4d4" stroke="#4528c7" transform="matrix(1,0,0,1,-53.5,-14)" style="opacity: 0.66;" stroke-width="17" opacity="0.66"></rect><rect x="362" y="362" width="146" height="57" r="5" rx="5" ry="5" fill="#cbf4d4" stroke="#4528c7" transform="matrix(1,0,0,1,-73,-28.5)" style="opacity: 0.66;" stroke-width="17" opacity="0.66"></rect><rect x="243" y="127" width="231" height="262" r="5" rx="5" ry="5" fill="#cbf4d4" stroke="#4528c7" transform="matrix(1,0,0,1,-115.5,-131)" style="opacity: 0.66;" stroke-width="17" opacity="0.66"></rect><rect x="257" y="397" width="27" height="301" r="5" rx="5" ry="5" fill="#cbf4d4" stroke="#4528c7" transform="matrix(1,0,0,1,-13.5,-150.5)" style="opacity: 0.66;" stroke-width="17" opacity="0.66"></rect><rect x="345" y="457" width="254" height="31" r="5" rx="5" ry="5" fill="#cbf4d4" stroke="#4528c7" transform="matrix(1,0,0,1,-127,-15.5)" style="opacity: 0.66;" stroke-width="17" opacity="0.66"></rect><rect x="233" y="174" width="47" height="261" r="5" rx="5" ry="5" fill="#cbf4d4" stroke="#4528c7" transform="matrix(1,0,0,1,-23.5,-130.5)" style="opacity: 0.66;" stroke-width="17" opacity="0.66"></rect><rect x="299" y="397" width="173" height="51" r="5" rx="5" ry="5" fill="#cbf4d4" stroke="#4528c7" transform="matrix(1,0,0,1,-86.5,-25.5)" style="opacity: 0.66;" stroke-width="17" opacity="0.66"></rect><rect x="195" y="12" width="215" height="135" r="5" rx="5" ry="5" fill="#cbf4d4" stroke="#4528c7" transform="matrix(1,0,0,1,-107.5,-67.5)" style="opacity: 0.66;" stroke-width="17" opacity="0.66"></rect><rect x="257" y="69" width="79" height="192" r="5" rx="5" ry="5" fill="#cbf4d4" stroke="#4528c7" transform="matrix(1,0,0,1,-39.5,-96)" style="opacity: 0.66;" stroke-width="17" opacity="0.66"></rect><rect x="348" y="475" width="282" height="195" r="5" rx="5" ry="5" fill="#cbf4d4" stroke="#4528c7" transform="matrix(1,0,0,1,-141,-97.5)" style="opacity: 0.66;" stroke-width="17" opacity="0.66"></rect><rect x="445" y="93" width="85" height="33" r="5" rx="5" ry="5" fill="#cbf4d4" stroke="#4528c7" transform="matrix(1,0,0,1,-42.5,-16.5)" style="opacity: 0.66;" stroke-width="17" opacity="0.66"></rect><rect x="306" y="170" width="125" height="233" r="5" rx="5" ry="5" fill="#cbf4d4" stroke="#4528c7" transform="matrix(1,0,0,1,-62.5,-116.5)" style="opacity: 0.66;" stroke-width="17" opacity="0.66"></rect><rect x="244" y="489" width="231" height="70" r="5" rx="5" ry="5" fill="#cbf4d4" stroke="#4528c7" transform="matrix(1,0,0,1,-115.5,-35)" style="opacity: 0.66;" stroke-width="17" opacity="0.66"></rect><rect x="446" y="39" width="163" height="170" r="5" rx="5" ry="5" fill="#cbf4d4" stroke="#4528c7" transform="matrix(1,0,0,1,-81.5,-85)" style="opacity: 0.66;" stroke-width="17" opacity="0.66"></rect><rect x="353" y="127" width="309" height="172" r="5" rx="5" ry="5" fill="#cbf4d4" stroke="#4528c7" transform="matrix(1,0,0,1,-154.5,-86)" style="opacity: 0.66;" stroke-width="17" opacity="0.66"></rect><rect x="435" y="217" width="31" height="183" r="5" rx="5" ry="5" fill="#cbf4d4" stroke="#4528c7" transform="matrix(1,0,0,1,-15.5,-91.5)" style="opacity: 0.66;" stroke-width="17" opacity="0.66"></rect><rect x="210" y="423" width="114" height="40" r="5" rx="5" ry="5" fill="#cbf4d4" stroke="#4528c7" transform="matrix(1,0,0,1,-57,-20)" style="opacity: 0.66;" stroke-width="17" opacity="0.66"></rect><rect x="341" y="40" width="182" height="81" r="5" rx="5" ry="5" fill="#cbf4d4" stroke="#4528c7" transform="matrix(1,0,0,1,-91,-40.5)" style="opacity: 0.66;" stroke-width="17" opacity="0.66"></rect><rect x="446" y="208" width="303" height="109" r="5" rx="5" ry="5" fill="#cbf4d4" stroke="#4528c7" transform="matrix(1,0,0,1,-151.5,-54.5)" style="opacity: 0.66;" stroke-width="17" opacity="0.66"></rect><rect x="443" y="130" width="118" height="232" r="5" rx="5" ry="5" fill="#cbf4d4" stroke="#4528c7" transform="matrix(1,0,0,1,-59,-116)" style="opacity: 0.66;" stroke-width="17" opacity="0.66"></rect><rect x="193" y="194" width="283" height="206" r="5" rx="5" ry="5" fill="#cbf4d4" stroke="#4528c7" transform="matrix(1,0,0,1,-141.5,-103)" style="opacity: 0.66;" stroke-width="17" opacity="0.66"></rect><rect x="336" y="154" width="84" height="51" r="5" rx="5" ry="5" fill="#cbf4d4" stroke="#4528c7" transform="matrix(1,0,0,1,-42,-25.5)" style="opacity: 0.66;" stroke-width="17" opacity="0.66"></rect><rect x="407" y="279" width="119" height="86" r="5" rx="5" ry="5" fill="#cbf4d4" stroke="#4528c7" transform="matrix(1,0,0,1,-59.5,-43)" style="opacity: 0.66;" stroke-width="17" opacity="0.66"></rect><rect x="402" y="305" width="292" height="120" r="5" rx="5" ry="5" fill="#cbf4d4" stroke="#4528c7" transform="matrix(1,0,0,1,-146,-60)" style="opacity: 0.66;" stroke-width="17" opacity="0.66"></rect><rect x="355" y="190" width="216" height="143" r="5" rx="5" ry="5" fill="#cbf4d4" stroke="#4528c7" transform="matrix(1,0,0,1,-108,-71.5)" style="opacity: 0.66;" stroke-width="17" opacity="0.66"></rect><rect x="394" y="2" width="84" height="226" r="5" rx="5" ry="5" fill="#cbf4d4" stroke="#4528c7" transform="matrix(1,0,0,1,-42,-113)" style="opacity: 0.66;" stroke-width="17" opacity="0.66"></rect><rect x="444" y="196" width="261" height="38" r="5" rx="5" ry="5" fill="#cbf4d4" stroke="#4528c7" transform="matrix(1,0,0,1,-130.5,-19)" style="opacity: 0.66;" stroke-width="17" opacity="0.66"></rect><rect x="321" y="139" width="294" height="161" r="5" rx="5" ry="5" fill="#cbf4d4" stroke="#4528c7" transform="matrix(1,0,0,1,-147,-80.5)" style="opacity: 0.66;" stroke-width="17" opacity="0.66"></rect><rect x="384" y="22" width="68" height="133" r="5" rx="5" ry="5" fill="#cbf4d4" stroke="#4528c7" transform="matrix(1,0,0,1,-34,-66.5)" style="opacity: 0.66;" stroke-width="17" opacity="0.66"></rect><rect x="332" y="104" width="195" height="37" r="5" rx="5" ry="5" fill="#cbf4d4" stroke="#4528c7" transform="matrix(1,0,0,1,-97.5,-18.5)" style="opacity: 0.66;" stroke-width="17" opacity="0.66"></rect><rect x="386" y="305" width="67" height="64" r="5" rx="5" ry="5" fill="#cbf4d4" stroke="#4528c7" transform="matrix(1,0,0,1,-33.5,-32)" style="opacity: 0.66;" stroke-width="17" opacity="0.66"></rect><rect x="260" y="268" width="278" height="123" r="5" rx="5" ry="5" fill="#cbf4d4" stroke="#4528c7" transform="matrix(1,0,0,1,-139,-61.5)" style="opacity: 0.66;" stroke-width="17" opacity="0.66"></rect><rect x="384" y="438" width="25" height="121" r="5" rx="5" ry="5" fill="#cbf4d4" stroke="#4528c7" transform="matrix(1,0,0,1,-12.5,-60.5)" style="opacity: 0.66;" stroke-width="17" opacity="0.66"></rect><rect x="419" y="389" width="46" height="304" r="5" rx="5" ry="5" fill="#cbf4d4" stroke="#4528c7" transform="matrix(1,0,0,1,-23,-152)" style="opacity: 0.66;" stroke-width="17" opacity="0.66"></rect><rect x="262" y="422" width="106" height="208" r="5" rx="5" ry="5" fill="#cbf4d4" stroke="#4528c7" transform="matrix(1,0,0,1,-53,-104)" style="opacity: 0.66;" stroke-width="17" opacity="0.66"></rect><rect x="404" y="64" width="171" height="131" r="5" rx="5" ry="5" fill="#cbf4d4" stroke="#4528c7" transform="matrix(1,0,0,1,-85.5,-65.5)" style="opacity: 0.66;" stroke-width="17" opacity="0.66"></rect><rect x="320" y="528" width="39" height="186" r="5" rx="5" ry="5" fill="#cbf4d4" stroke="#4528c7" transform="matrix(1,0,0,1,-19.5,-93)" style="opacity: 0.66;" stroke-width="17" opacity="0.66"></rect></svg>