<svg height="480" version="1.1" width="640" xmlns="http://www.w3.org/2000/svg" style="overflow: hidden; position: relative; top: -0.316666px;"><desc>Created with Raphaël 2.0.1</desc><defs></defs><rect x="0" y="0" width="640" height="480" r="0" rx="0" ry="0" fill="#dd27dd" stroke="none" style=""></rect><rect x="317" y="341" width="140" height="25" r="5" rx="5" ry="5" fill="#75ddcf" stroke="#79b593" transform="matrix(1,0,0,1,-70,-12.5)" style="opacity: 0.6;" stroke-width="9" opacity="0.6"></rect><rect x="136" y="142" width="239" height="220" r="5" rx="5" ry="5" fill="#75ddcf" stroke="#79b593" transform="matrix(1,0,0,1,-119.5,-110)" style="opacity: 0.6;" stroke-width="9" opacity="0.6"></rect><rect x="256" y="366" width="140" height="20" r="5" rx="5" ry="5" fill="#75ddcf" stroke="#79b593" transform="matrix(1,0,0,1,-70,-10)" style="opacity: 0.6;" stroke-width="9" opacity="0.6"></rect><rect x="271" y="13" width="240" height="318" r="5" rx="5" ry="5" fill="#75ddcf" stroke="#79b593" transform="matrix(1,0,0,1,-120,-159)" style="opacity: 0.6;" stroke-width="9" opacity="0.6"></rect><rect x="357" y="225" width="130" height="101" r="5" rx="5" ry="5" fill="#75ddcf" stroke="#79b593" transform="matrix(1,0,0,1,-65,-50.5)" style="opacity: 0.6;" stroke-width="9" opacity="0.6"></rect><rect x="442" y="113" width="180" height="199" r="5" rx="5" ry="5" fill="#75ddcf" stroke="#79b593" transform="matrix(1,0,0,1,-90,-99.5)" style="opacity: 0.6;" stroke-width="9" opacity="0.6"></rect><rect x="515" y="379" width="86" height="20" r="5" rx="5" ry="5" fill="#75ddcf" stroke="#79b593" transform="matrix(1,0,0,1,-43,-10)" style="opacity: 0.6;" stroke-width="9" opacity="0.6"></rect><rect x="238" y="23" width="168" height="118" r="5" rx="5" ry="5" fill="#75ddcf" stroke="#79b593" transform="matrix(1,0,0,1,-84,-59)" style="opacity: 0.6;" stroke-width="9" opacity="0.6"></rect><rect x="297" y="288" width="162" height="70" r="5" rx="5" ry="5" fill="#75ddcf" stroke="#79b593" transform="matrix(1,0,0,1,-81,-35)" style="opacity: 0.6;" stroke-width="9" opacity="0.6"></rect><rect x="230" y="237" width="86" height="152" r="5" rx="5" ry="5" fill="#75ddcf" stroke="#79b593" transform="matrix(1,0,0,1,-43,-76)" style="opacity: 0.6;" stroke-width="9" opacity="0.6"></rect><rect x="391" y="344" width="26" height="237" r="5" rx="5" ry="5" fill="#75ddcf" stroke="#79b593" transform="matrix(1,0,0,1,-13,-118.5)" style="opacity: 0.6;" stroke-width="9" opacity="0.6"></rect><rect x="390" y="232" width="285" height="40" r="5" rx="5" ry="5" fill="#75ddcf" stroke="#79b593" transform="matrix(1,0,0,1,-142.5,-20)" style="opacity: 0.6;" stroke-width="9" opacity="0.6"></rect><rect x="335" y="197" width="270" height="223" r="5" rx="5" ry="5" fill="#75ddcf" stroke="#79b593" transform="matrix(1,0,0,1,-135,-111.5)" style="opacity: 0.6;" stroke-width="9" opacity="0.6"></rect><rect x="320" y="105" width="98" height="149" r="5" rx="5" ry="5" fill="#75ddcf" stroke="#79b593" transform="matrix(1,0,0,1,-49,-74.5)" style="opacity: 0.6;" stroke-width="9" opacity="0.6"></rect><rect x="522" y="156" width="103" height="229" r="5" rx="5" ry="5" fill="#75ddcf" stroke="#79b593" transform="matrix(1,0,0,1,-51.5,-114.5)" style="opacity: 0.6;" stroke-width="9" opacity="0.6"></rect><rect x="352" y="216" width="92" height="95" r="5" rx="5" ry="5" fill="#75ddcf" stroke="#79b593" transform="matrix(1,0,0,1,-46,-47.5)" style="opacity: 0.6;" stroke-width="9" opacity="0.6"></rect><rect x="110" y="457" width="277" height="206" r="5" rx="5" ry="5" fill="#75ddcf" stroke="#79b593" transform="matrix(1,0,0,1,-138.5,-103)" style="opacity: 0.6;" stroke-width="9" opacity="0.6"></rect><rect x="232" y="157" width="105" height="139" r="5" rx="5" ry="5" fill="#75ddcf" stroke="#79b593" transform="matrix(1,0,0,1,-52.5,-69.5)" style="opacity: 0.6;" stroke-width="9" opacity="0.6"></rect><rect x="269" y="302" width="84" height="203" r="5" rx="5" ry="5" fill="#75ddcf" stroke="#79b593" transform="matrix(1,0,0,1,-42,-101.5)" style="opacity: 0.6;" stroke-width="9" opacity="0.6"></rect><rect x="136" y="219" width="122" height="163" r="5" rx="5" ry="5" fill="#75ddcf" stroke="#79b593" transform="matrix(1,0,0,1,-61,-81.5)" style="opacity: 0.6;" stroke-width="9" opacity="0.6"></rect><rect x="197" y="93" width="67" height="37" r="5" rx="5" ry="5" fill="#75ddcf" stroke="#79b593" transform="matrix(1,0,0,1,-33.5,-18.5)" style="opacity: 0.6;" stroke-width="9" opacity="0.6"></rect><rect x="541" y="268" width="68" height="192" r="5" rx="5" ry="5" fill="#75ddcf" stroke="#79b593" transform="matrix(1,0,0,1,-34,-96)" style="opacity: 0.6;" stroke-width="9" opacity="0.6"></rect><rect x="311" y="309" width="294" height="258" r="5" rx="5" ry="5" fill="#75ddcf" stroke="#79b593" transform="matrix(1,0,0,1,-147,-129)" style="opacity: 0.6;" stroke-width="9" opacity="0.6"></rect><rect x="145" y="161" width="152" height="167" r="5" rx="5" ry="5" fill="#75ddcf" stroke="#79b593" transform="matrix(1,0,0,1,-76,-83.5)" style="opacity: 0.6;" stroke-width="9" opacity="0.6"></rect><rect x="329" y="54" width="174" height="293" r="5" rx="5" ry="5" fill="#75ddcf" stroke="#79b593" transform="matrix(1,0,0,1,-87,-146.5)" style="opacity: 0.6;" stroke-width="9" opacity="0.6"></rect><rect x="306" y="19" width="171" height="91" r="5" rx="5" ry="5" fill="#75ddcf" stroke="#79b593" transform="matrix(1,0,0,1,-85.5,-45.5)" style="opacity: 0.6;" stroke-width="9" opacity="0.6"></rect><rect x="135" y="13" width="150" height="103" r="5" rx="5" ry="5" fill="#75ddcf" stroke="#79b593" transform="matrix(1,0,0,1,-75,-51.5)" style="opacity: 0.6;" stroke-width="9" opacity="0.6"></rect><rect x="376" y="349" width="92" height="276" r="5" rx="5" ry="5" fill="#75ddcf" stroke="#79b593" transform="matrix(1,0,0,1,-46,-138)" style="opacity: 0.6;" stroke-width="9" opacity="0.6"></rect><rect x="189" y="143" width="215" height="276" r="5" rx="5" ry="5" fill="#75ddcf" stroke="#79b593" transform="matrix(1,0,0,1,-107.5,-138)" style="opacity: 0.6;" stroke-width="9" opacity="0.6"></rect><rect x="450" y="347" width="33" height="239" r="5" rx="5" ry="5" fill="#75ddcf" stroke="#79b593" transform="matrix(1,0,0,1,-16.5,-119.5)" style="opacity: 0.6;" stroke-width="9" opacity="0.6"></rect><rect x="121" y="138" width="49" height="223" r="5" rx="5" ry="5" fill="#75ddcf" stroke="#79b593" transform="matrix(1,0,0,1,-24.5,-111.5)" style="opacity: 0.6;" stroke-width="9" opacity="0.6"></rect><rect x="445" y="211" width="272" height="89" r="5" rx="5" ry="5" fill="#75ddcf" stroke="#79b593" transform="matrix(1,0,0,1,-136,-44.5)" style="opacity: 0.6;" stroke-width="9" opacity="0.6"></rect><rect x="279" y="349" width="142" height="75" r="5" rx="5" ry="5" fill="#75ddcf" stroke="#79b593" transform="matrix(1,0,0,1,-71,-37.5)" style="opacity: 0.6;" stroke-width="9" opacity="0.6"></rect><rect x="155" y="428" width="145" height="35" r="5" rx="5" ry="5" fill="#75ddcf" stroke="#79b593" transform="matrix(1,0,0,1,-72.5,-17.5)" style="opacity: 0.6;" stroke-width="9" opacity="0.6"></rect><rect x="452" y="62" width="253" height="151" r="5" rx="5" ry="5" fill="#75ddcf" stroke="#79b593" transform="matrix(1,0,0,1,-126.5,-75.5)" style="opacity: 0.6;" stroke-width="9" opacity="0.6"></rect><rect x="344" y="323" width="267" height="267" r="5" rx="5" ry="5" fill="#75ddcf" stroke="#79b593" transform="matrix(1,0,0,1,-133.5,-133.5)" style="opacity: 0.6;" stroke-width="9" opacity="0.6"></rect><rect x="294" y="235" width="208" height="100" r="5" rx="5" ry="5" fill="#75ddcf" stroke="#79b593" transform="matrix(1,0,0,1,-104,-50)" style="opacity: 0.6;" stroke-width="9" opacity="0.6"></rect><rect x="482" y="433" width="241" height="225" r="5" rx="5" ry="5" fill="#75ddcf" stroke="#79b593" transform="matrix(1,0,0,1,-120.5,-112.5)" style="opacity: 0.6;" stroke-width="9" opacity="0.6"></rect><rect x="540" y="206" width="65" height="238" r="5" rx="5" ry="5" fill="#75ddcf" stroke="#79b593" transform="matrix(1,0,0,1,-32.5,-119)" style="opacity: 0.6;" stroke-width="9" opacity="0.6"></rect><rect x="423" y="36" width="207" height="242" r="5" rx="5" ry="5" fill="#75ddcf" stroke="#79b593" transform="matrix(1,0,0,1,-103.5,-121)" style="opacity: 0.6;" stroke-width="9" opacity="0.6"></rect><rect x="461" y="200" width="179" height="247" r="5" rx="5" ry="5" fill="#75ddcf" stroke="#79b593" transform="matrix(1,0,0,1,-89.5,-123.5)" style="opacity: 0.6;" stroke-width="9" opacity="0.6"></rect><rect x="104" y="19" width="315" height="201" r="5" rx="5" ry="5" fill="#75ddcf" stroke="#79b593" transform="matrix(1,0,0,1,-157.5,-100.5)" style="opacity: 0.6;" stroke-width="9" opacity="0.6"></rect><rect x="317" y="12" width="93" height="290" r="5" rx="5" ry="5" fill="#75ddcf" stroke="#79b593" transform="matrix(1,0,0,1,-46.5,-145)" style="opacity: 0.6;" stroke-width="9" opacity="0.6"></rect><rect x="192" y="341" width="305" height="26" r="5" rx="5" ry="5" fill="#75ddcf" stroke="#79b593" transform="matrix(1,0,0,1,-152.5,-13)" style="opacity: 0.6;" stroke-width="9" opacity="0.6"></rect><rect x="190" y="278" width="126" height="307" r="5" rx="5" ry="5" fill="#75ddcf" stroke="#79b593" transform="matrix(1,0,0,1,-63,-153.5)" style="opacity: 0.6;" stroke-width="9" opacity="0.6"></rect><rect x="449" y="112" width="157" height="316" r="5" rx="5" ry="5" fill="#75ddcf" stroke="#79b593" transform="matrix(1,0,0,1,-78.5,-158)" style="opacity: 0.6;" stroke-width="9" opacity="0.6"></rect><rect x="414" y="38" width="151" height="176" r="5" rx="5" ry="5" fill="#75ddcf" stroke="#79b593" transform="matrix(1,0,0,1,-75.5,-88)" style="opacity: 0.6;" stroke-width="9" opacity="0.6"></rect><rect x="504" y="206" width="254" height="109" r="5" rx="5" ry="5" fill="#75ddcf" stroke="#79b593" transform="matrix(1,0,0,1,-127,-54.5)" style="opacity: 0.6;" stroke-width="9" opacity="0.6"></rect><rect x="184" y="463" width="82" height="202" r="5" rx="5" ry="5" fill="#75ddcf" stroke="#79b593" transform="matrix(1,0,0,1,-41,-101)" style="opacity: 0.6;" stroke-width="9" opacity="0.6"></rect><rect x="525" y="76" width="158" height="76" r="5" rx="5" ry="5" fill="#75ddcf" stroke="#79b593" transform="matrix(1,0,0,1,-79,-38)" style="opacity: 0.6;" stroke-width="9" opacity="0.6"></rect><rect x="531" y="311" width="129" height="243" r="5" rx="5" ry="5" fill="#75ddcf" stroke="#79b593" transform="matrix(1,0,0,1,-64.5,-121.5)" style="opacity: 0.6;" stroke-width="9" opacity="0.6"></rect><rect x="309" y="170" width="276" height="72" r="5" rx="5" ry="5" fill="#75ddcf" stroke="#79b593" transform="matrix(1,0,0,1,-138,-36)" style="opacity: 0.6;" stroke-width="9" opacity="0.6"></rect><rect x="146" y="444" width="275" height="77" r="5" rx="5" ry="5" fill="#75ddcf" stroke="#79b593" transform="matrix(1,0,0,1,-137.5,-38.5)" style="opacity: 0.6;" stroke-width="9" opacity="0.6"></rect></svg>