<svg height="480" version="1.1" width="640" xmlns="http://www.w3.org/2000/svg" style="overflow: hidden; position: relative; top: -0.316666px;"><desc>Created with Raphaël 2.0.1</desc><defs></defs><rect x="0" y="0" width="640" height="480" r="0" rx="0" ry="0" fill="#cc35fe" stroke="none" style=""></rect><ellipse cx="505" cy="309" rx="24" ry="33.839999999999996" fill="#1fc999" stroke="#ba6d52" transform="matrix(1,0,0,1,0,0)" style="opacity: 0.95;" stroke-width="10" opacity="0.95"></ellipse><ellipse cx="414" cy="201" rx="60" ry="84.6" fill="#1fc999" stroke="#ba6d52" transform="matrix(0.9903,0.1392,-0.1392,0.9903,32.0028,-55.6615)" style="opacity: 0.95;" stroke-width="10" opacity="0.95"></ellipse><ellipse cx="330" cy="262" rx="21" ry="29.61" fill="#1fc999" stroke="#ba6d52" transform="matrix(0.9613,0.2756,-0.2756,0.9613,85.0006,-80.8109)" style="opacity: 0.95;" stroke-width="10" opacity="0.95"></ellipse><ellipse cx="378" cy="267" rx="18" ry="25.38" fill="#1fc999" stroke="#ba6d52" transform="matrix(0.9135,0.4067,-0.4067,0.9135,141.2785,-130.6631)" style="opacity: 0.95;" stroke-width="10" opacity="0.95"></ellipse><ellipse cx="563" cy="259" rx="53" ry="74.72999999999999" fill="#1fc999" stroke="#ba6d52" transform="matrix(0.848,0.5299,-0.5299,0.848,222.798,-258.989)" style="opacity: 0.95;" stroke-width="10" opacity="0.95"></ellipse><ellipse cx="512" cy="271" rx="30" ry="42.3" fill="#1fc999" stroke="#ba6d52" transform="matrix(0.766,0.6428,-0.6428,0.766,293.9807,-265.7053)" style="opacity: 0.95;" stroke-width="10" opacity="0.95"></ellipse><ellipse cx="383" cy="298" rx="60" ry="84.6" fill="#1fc999" stroke="#ba6d52" transform="matrix(0.6691,0.7431,-0.7431,0.6691,348.1801,-186.0254)" style="opacity: 0.95;" stroke-width="10" opacity="0.95"></ellipse><ellipse cx="70" cy="261" rx="54" ry="76.14" fill="#1fc999" stroke="#ba6d52" transform="matrix(0.5592,0.829,-0.829,0.5592,247.2353,57.018)" style="opacity: 0.95;" stroke-width="10" opacity="0.95"></ellipse><ellipse cx="457" cy="305" rx="41" ry="57.809999999999995" fill="#1fc999" stroke="#ba6d52" transform="matrix(0.4384,0.8988,-0.8988,0.4384,530.7966,-239.4521)" style="opacity: 0.95;" stroke-width="10" opacity="0.95"></ellipse><ellipse cx="502" cy="284" rx="47" ry="66.27" fill="#1fc999" stroke="#ba6d52" transform="matrix(0.309,0.9511,-0.9511,0.309,616.9735,-281.1912)" style="opacity: 0.95;" stroke-width="10" opacity="0.95"></ellipse><ellipse cx="373" cy="275" rx="47" ry="66.27" fill="#1fc999" stroke="#ba6d52" transform="matrix(0.1736,0.9848,-0.9848,0.1736,579.0514,-140.0865)" style="opacity: 0.95;" stroke-width="10" opacity="0.95"></ellipse><ellipse cx="318" cy="283" rx="60" ry="84.6" fill="#1fc999" stroke="#ba6d52" transform="matrix(0.0349,0.9994,-0.9994,0.0349,589.7296,-44.6828)" style="opacity: 0.95;" stroke-width="10" opacity="0.95"></ellipse><ellipse cx="457" cy="264" rx="60" ry="84.6" fill="#1fc999" stroke="#ba6d52" transform="matrix(-0.1045,0.9945,-0.9945,-0.1045,767.3233,-162.901)" style="opacity: 0.95;" stroke-width="10" opacity="0.95"></ellipse><ellipse cx="292" cy="228" rx="22" ry="31.02" fill="#1fc999" stroke="#ba6d52" transform="matrix(-0.2419,0.9703,-0.9703,-0.2419,583.8686,-0.1682)" style="opacity: 0.95;" stroke-width="10" opacity="0.95"></ellipse><ellipse cx="41" cy="200" rx="28" ry="39.48" fill="#1fc999" stroke="#ba6d52" transform="matrix(-0.3746,0.9272,-0.9272,-0.3746,241.7956,236.9068)" style="opacity: 0.95;" stroke-width="10" opacity="0.95"></ellipse><ellipse cx="114" cy="260" rx="59" ry="83.19" fill="#1fc999" stroke="#ba6d52" transform="matrix(-0.5,0.866,-0.866,-0.5,396.1666,291.2731)" style="opacity: 0.95;" stroke-width="10" opacity="0.95"></ellipse><ellipse cx="455" cy="186" rx="23" ry="32.43" fill="#1fc999" stroke="#ba6d52" transform="matrix(-0.6157,0.788,-0.788,-0.6157,881.696,-58.0319)" style="opacity: 0.95;" stroke-width="10" opacity="0.95"></ellipse><ellipse cx="615" cy="310" rx="53" ry="74.72999999999999" fill="#1fc999" stroke="#ba6d52" transform="matrix(-0.7193,0.6947,-0.6947,-0.7193,1272.7381,105.7804)" style="opacity: 0.95;" stroke-width="10" opacity="0.95"></ellipse><ellipse cx="187" cy="282" rx="24" ry="33.839999999999996" fill="#1fc999" stroke="#ba6d52" transform="matrix(-0.809,0.5878,-0.5878,-0.809,504.0416,400.227)" style="opacity: 0.95;" stroke-width="10" opacity="0.95"></ellipse><ellipse cx="249" cy="213" rx="55" ry="77.55" fill="#1fc999" stroke="#ba6d52" transform="matrix(-0.8829,0.4695,-0.4695,-0.8829,568.8514,284.1694)" style="opacity: 0.95;" stroke-width="10" opacity="0.95"></ellipse><ellipse cx="506" cy="194" rx="34" ry="47.94" fill="#1fc999" stroke="#ba6d52" transform="matrix(-0.9397,0.342,-0.342,-0.9397,1047.8364,203.2382)" style="opacity: 0.95;" stroke-width="10" opacity="0.95"></ellipse><ellipse cx="367" cy="182" rx="41" ry="57.809999999999995" fill="#1fc999" stroke="#ba6d52" transform="matrix(-0.9781,0.2079,-0.2079,-0.9781,763.8201,283.7193)" style="opacity: 0.95;" stroke-width="10" opacity="0.95"></ellipse><ellipse cx="438" cy="170" rx="27" ry="38.07" fill="#1fc999" stroke="#ba6d52" transform="matrix(-0.9976,0.0698,-0.0698,-0.9976,886.7917,309.0326)" style="opacity: 0.95;" stroke-width="10" opacity="0.95"></ellipse><ellipse cx="330" cy="218" rx="33" ry="46.529999999999994" fill="#1fc999" stroke="#ba6d52" transform="matrix(-0.9976,-0.0698,0.0698,-0.9976,643.9892,458.4886)" style="opacity: 0.95;" stroke-width="10" opacity="0.95"></ellipse><ellipse cx="126" cy="291" rx="55" ry="77.55" fill="#1fc999" stroke="#ba6d52" transform="matrix(-0.9781,-0.2079,0.2079,-0.9781,188.7443,601.8378)" style="opacity: 0.95;" stroke-width="10" opacity="0.95"></ellipse><ellipse cx="568" cy="177" rx="42" ry="59.22" fill="#1fc999" stroke="#ba6d52" transform="matrix(-0.9397,-0.342,0.342,-0.9397,1041.2078,537.593)" style="opacity: 0.95;" stroke-width="10" opacity="0.95"></ellipse><ellipse cx="212" cy="185" rx="54" ry="76.14" fill="#1fc999" stroke="#ba6d52" transform="matrix(-0.8829,-0.4695,0.4695,-0.8829,312.3327,447.8733)" style="opacity: 0.95;" stroke-width="10" opacity="0.95"></ellipse><ellipse cx="226" cy="279" rx="33" ry="46.529999999999994" fill="#1fc999" stroke="#ba6d52" transform="matrix(-0.809,-0.5878,0.5878,-0.809,244.8458,637.5552)" style="opacity: 0.95;" stroke-width="10" opacity="0.95"></ellipse><ellipse cx="466" cy="267" rx="27" ry="38.07" fill="#1fc999" stroke="#ba6d52" transform="matrix(-0.7193,-0.6947,0.6947,-0.7193,615.7386,782.7745)" style="opacity: 0.95;" stroke-width="10" opacity="0.95"></ellipse><ellipse cx="567" cy="300" rx="51" ry="71.91" fill="#1fc999" stroke="#ba6d52" transform="matrix(-0.6157,-0.788,0.788,-0.6157,679.6768,931.5005)" style="opacity: 0.95;" stroke-width="10" opacity="0.95"></ellipse><ellipse cx="125" cy="221" rx="23" ry="32.43" fill="#1fc999" stroke="#ba6d52" transform="matrix(-0.5,-0.866,0.866,-0.5,-3.8916,439.7532)" style="opacity: 0.95;" stroke-width="10" opacity="0.95"></ellipse><ellipse cx="476" cy="183" rx="42" ry="59.22" fill="#1fc999" stroke="#ba6d52" transform="matrix(-0.3746,-0.9272,0.9272,-0.3746,484.6381,692.8925)" style="opacity: 0.95;" stroke-width="10" opacity="0.95"></ellipse><ellipse cx="495" cy="266" rx="58" ry="81.78" fill="#1fc999" stroke="#ba6d52" transform="matrix(-0.2419,-0.9703,0.9703,-0.2419,356.6527,810.6476)" style="opacity: 0.95;" stroke-width="10" opacity="0.95"></ellipse><ellipse cx="114" cy="202" rx="26" ry="36.66" fill="#1fc999" stroke="#ba6d52" transform="matrix(-0.1045,-0.9945,0.9945,-0.1045,-74.9772,336.4902)" style="opacity: 0.95;" stroke-width="10" opacity="0.95"></ellipse><ellipse cx="45" cy="206" rx="23" ry="32.43" fill="#1fc999" stroke="#ba6d52" transform="matrix(0.0349,-0.9994,0.9994,0.0349,-162.445,243.7833)" style="opacity: 0.95;" stroke-width="10" opacity="0.95"></ellipse><ellipse cx="522" cy="300" rx="46" ry="64.86" fill="#1fc999" stroke="#ba6d52" transform="matrix(0.1736,-0.9848,0.9848,0.1736,135.9133,761.9752)" style="opacity: 0.95;" stroke-width="10" opacity="0.95"></ellipse><ellipse cx="137" cy="295" rx="32" ry="45.12" fill="#1fc999" stroke="#ba6d52" transform="matrix(0.309,-0.9511,0.9511,0.309,-185.897,334.1347)" style="opacity: 0.95;" stroke-width="10" opacity="0.95"></ellipse><ellipse cx="531" cy="259" rx="22" ry="31.02" fill="#1fc999" stroke="#ba6d52" transform="matrix(0.4384,-0.8988,0.8988,0.4384,65.4373,622.7215)" style="opacity: 0.95;" stroke-width="10" opacity="0.95"></ellipse><ellipse cx="600" cy="207" rx="24" ry="33.839999999999996" fill="#1fc999" stroke="#ba6d52" transform="matrix(0.5592,-0.829,0.829,0.5592,92.8735,588.6696)" style="opacity: 0.95;" stroke-width="10" opacity="0.95"></ellipse><ellipse cx="239" cy="262" rx="35" ry="49.349999999999994" fill="#1fc999" stroke="#ba6d52" transform="matrix(0.6691,-0.7431,0.7431,0.6691,-115.6262,264.2994)" style="opacity: 0.95;" stroke-width="10" opacity="0.95"></ellipse><ellipse cx="582" cy="292" rx="33" ry="46.529999999999994" fill="#1fc999" stroke="#ba6d52" transform="matrix(0.766,-0.6428,0.6428,0.766,-51.5318,442.4174)" style="opacity: 0.95;" stroke-width="10" opacity="0.95"></ellipse><ellipse cx="549" cy="258" rx="45" ry="63.449999999999996" fill="#1fc999" stroke="#ba6d52" transform="matrix(0.848,-0.5299,0.5299,0.848,-53.2976,330.1293)" style="opacity: 0.95;" stroke-width="10" opacity="0.95"></ellipse><ellipse cx="20" cy="175" rx="60" ry="84.6" fill="#1fc999" stroke="#ba6d52" transform="matrix(0.9135,-0.4067,0.4067,0.9135,-69.4498,23.2643)" style="opacity: 0.95;" stroke-width="10" opacity="0.95"></ellipse><ellipse cx="128" cy="270" rx="23" ry="32.43" fill="#1fc999" stroke="#ba6d52" transform="matrix(0.9613,-0.2756,0.2756,0.9613,-69.4636,45.7409)" style="opacity: 0.95;" stroke-width="10" opacity="0.95"></ellipse><ellipse cx="281" cy="275" rx="58" ry="81.78" fill="#1fc999" stroke="#ba6d52" transform="matrix(0.9903,-0.1392,0.1392,0.9903,-35.5379,41.7839)" style="opacity: 0.95;" stroke-width="10" opacity="0.95"></ellipse></svg>