<svg height="480" version="1.1" width="640" xmlns="http://www.w3.org/2000/svg" style="overflow: hidden; position: relative; top: -0.316666px;"><desc>Created with Raphaël 2.0.1</desc><defs></defs><rect x="0" y="0" width="640" height="480" r="0" rx="0" ry="0" fill="#865dff" stroke="none" style=""></rect><rect x="250" y="22" width="223" height="231" r="5" rx="5" ry="5" fill="#8bf781" stroke="#61d6c1" transform="matrix(1,0,0,1,-111.5,-115.5)" style="opacity: 0.81;" stroke-width="10" opacity="0.81"></rect><rect x="353" y="149" width="315" height="298" r="5" rx="5" ry="5" fill="#8bf781" stroke="#61d6c1" transform="matrix(1,0,0,1,-157.5,-149)" style="opacity: 0.81;" stroke-width="10" opacity="0.81"></rect><rect x="396" y="301" width="64" height="66" r="5" rx="5" ry="5" fill="#8bf781" stroke="#61d6c1" transform="matrix(1,0,0,1,-32,-33)" style="opacity: 0.81;" stroke-width="10" opacity="0.81"></rect><rect x="324" y="173" width="278" height="140" r="5" rx="5" ry="5" fill="#8bf781" stroke="#61d6c1" transform="matrix(1,0,0,1,-139,-70)" style="opacity: 0.81;" stroke-width="10" opacity="0.81"></rect><rect x="360" y="37" width="288" height="175" r="5" rx="5" ry="5" fill="#8bf781" stroke="#61d6c1" transform="matrix(1,0,0,1,-144,-87.5)" style="opacity: 0.81;" stroke-width="10" opacity="0.81"></rect><rect x="332" y="375" width="45" height="206" r="5" rx="5" ry="5" fill="#8bf781" stroke="#61d6c1" transform="matrix(1,0,0,1,-22.5,-103)" style="opacity: 0.81;" stroke-width="10" opacity="0.81"></rect><rect x="357" y="115" width="182" height="114" r="5" rx="5" ry="5" fill="#8bf781" stroke="#61d6c1" transform="matrix(1,0,0,1,-91,-57)" style="opacity: 0.81;" stroke-width="10" opacity="0.81"></rect><rect x="344" y="316" width="23" height="165" r="5" rx="5" ry="5" fill="#8bf781" stroke="#61d6c1" transform="matrix(1,0,0,1,-11.5,-82.5)" style="opacity: 0.81;" stroke-width="10" opacity="0.81"></rect><rect x="390" y="-65" width="66" height="147" r="5" rx="5" ry="5" fill="#8bf781" stroke="#61d6c1" transform="matrix(1,0,0,1,-33,-73.5)" style="opacity: 0.81;" stroke-width="10" opacity="0.81"></rect><rect x="401" y="279" width="112" height="239" r="5" rx="5" ry="5" fill="#8bf781" stroke="#61d6c1" transform="matrix(1,0,0,1,-56,-119.5)" style="opacity: 0.81;" stroke-width="10" opacity="0.81"></rect><rect x="315" y="141" width="159" height="274" r="5" rx="5" ry="5" fill="#8bf781" stroke="#61d6c1" transform="matrix(1,0,0,1,-79.5,-137)" style="opacity: 0.81;" stroke-width="10" opacity="0.81"></rect><rect x="242" y="89" width="226" height="225" r="5" rx="5" ry="5" fill="#8bf781" stroke="#61d6c1" transform="matrix(1,0,0,1,-113,-112.5)" style="opacity: 0.81;" stroke-width="10" opacity="0.81"></rect><rect x="379" y="288" width="119" height="259" r="5" rx="5" ry="5" fill="#8bf781" stroke="#61d6c1" transform="matrix(1,0,0,1,-59.5,-129.5)" style="opacity: 0.81;" stroke-width="10" opacity="0.81"></rect><rect x="269" y="222" width="30" height="93" r="5" rx="5" ry="5" fill="#8bf781" stroke="#61d6c1" transform="matrix(1,0,0,1,-15,-46.5)" style="opacity: 0.81;" stroke-width="10" opacity="0.81"></rect><rect x="330" y="226" width="247" height="238" r="5" rx="5" ry="5" fill="#8bf781" stroke="#61d6c1" transform="matrix(1,0,0,1,-123.5,-119)" style="opacity: 0.81;" stroke-width="10" opacity="0.81"></rect><rect x="341" y="369" width="125" height="134" r="5" rx="5" ry="5" fill="#8bf781" stroke="#61d6c1" transform="matrix(1,0,0,1,-62.5,-67)" style="opacity: 0.81;" stroke-width="10" opacity="0.81"></rect><rect x="391" y="537" width="190" height="52" r="5" rx="5" ry="5" fill="#8bf781" stroke="#61d6c1" transform="matrix(1,0,0,1,-95,-26)" style="opacity: 0.81;" stroke-width="10" opacity="0.81"></rect><rect x="323" y="306" width="228" height="23" r="5" rx="5" ry="5" fill="#8bf781" stroke="#61d6c1" transform="matrix(1,0,0,1,-114,-11.5)" style="opacity: 0.81;" stroke-width="10" opacity="0.81"></rect><rect x="285" y="26" width="278" height="318" r="5" rx="5" ry="5" fill="#8bf781" stroke="#61d6c1" transform="matrix(1,0,0,1,-139,-159)" style="opacity: 0.81;" stroke-width="10" opacity="0.81"></rect><rect x="276" y="560" width="146" height="264" r="5" rx="5" ry="5" fill="#8bf781" stroke="#61d6c1" transform="matrix(1,0,0,1,-73,-132)" style="opacity: 0.81;" stroke-width="10" opacity="0.81"></rect><rect x="304" y="368" width="139" height="304" r="5" rx="5" ry="5" fill="#8bf781" stroke="#61d6c1" transform="matrix(1,0,0,1,-69.5,-152)" style="opacity: 0.81;" stroke-width="10" opacity="0.81"></rect><rect x="305" y="192" width="319" height="146" r="5" rx="5" ry="5" fill="#8bf781" stroke="#61d6c1" transform="matrix(1,0,0,1,-159.5,-73)" style="opacity: 0.81;" stroke-width="10" opacity="0.81"></rect><rect x="293" y="105" width="32" height="68" r="5" rx="5" ry="5" fill="#8bf781" stroke="#61d6c1" transform="matrix(1,0,0,1,-16,-34)" style="opacity: 0.81;" stroke-width="10" opacity="0.81"></rect><rect x="296" y="448" width="194" height="204" r="5" rx="5" ry="5" fill="#8bf781" stroke="#61d6c1" transform="matrix(1,0,0,1,-97,-102)" style="opacity: 0.81;" stroke-width="10" opacity="0.81"></rect><rect x="359" y="-22" width="242" height="150" r="5" rx="5" ry="5" fill="#8bf781" stroke="#61d6c1" transform="matrix(1,0,0,1,-121,-75)" style="opacity: 0.81;" stroke-width="10" opacity="0.81"></rect><rect x="370" y="-3" width="228" height="251" r="5" rx="5" ry="5" fill="#8bf781" stroke="#61d6c1" transform="matrix(1,0,0,1,-114,-125.5)" style="opacity: 0.81;" stroke-width="10" opacity="0.81"></rect><rect x="338" y="338" width="284" height="46" r="5" rx="5" ry="5" fill="#8bf781" stroke="#61d6c1" transform="matrix(1,0,0,1,-142,-23)" style="opacity: 0.81;" stroke-width="10" opacity="0.81"></rect><rect x="314" y="485" width="60" height="66" r="5" rx="5" ry="5" fill="#8bf781" stroke="#61d6c1" transform="matrix(1,0,0,1,-30,-33)" style="opacity: 0.81;" stroke-width="10" opacity="0.81"></rect><rect x="377" y="211" width="59" height="210" r="5" rx="5" ry="5" fill="#8bf781" stroke="#61d6c1" transform="matrix(1,0,0,1,-29.5,-105)" style="opacity: 0.81;" stroke-width="10" opacity="0.81"></rect><rect x="258" y="185" width="170" height="253" r="5" rx="5" ry="5" fill="#8bf781" stroke="#61d6c1" transform="matrix(1,0,0,1,-85,-126.5)" style="opacity: 0.81;" stroke-width="10" opacity="0.81"></rect><rect x="373" y="277" width="310" height="292" r="5" rx="5" ry="5" fill="#8bf781" stroke="#61d6c1" transform="matrix(1,0,0,1,-155,-146)" style="opacity: 0.81;" stroke-width="10" opacity="0.81"></rect><rect x="252" y="215" width="278" height="266" r="5" rx="5" ry="5" fill="#8bf781" stroke="#61d6c1" transform="matrix(1,0,0,1,-139,-133)" style="opacity: 0.81;" stroke-width="10" opacity="0.81"></rect><rect x="341" y="5" width="99" height="154" r="5" rx="5" ry="5" fill="#8bf781" stroke="#61d6c1" transform="matrix(1,0,0,1,-49.5,-77)" style="opacity: 0.81;" stroke-width="10" opacity="0.81"></rect><rect x="342" y="454" width="22" height="299" r="5" rx="5" ry="5" fill="#8bf781" stroke="#61d6c1" transform="matrix(1,0,0,1,-11,-149.5)" style="opacity: 0.81;" stroke-width="10" opacity="0.81"></rect><rect x="327" y="460" width="229" height="21" r="5" rx="5" ry="5" fill="#8bf781" stroke="#61d6c1" transform="matrix(1,0,0,1,-114.5,-10.5)" style="opacity: 0.81;" stroke-width="10" opacity="0.81"></rect><rect x="315" y="211" width="291" height="79" r="5" rx="5" ry="5" fill="#8bf781" stroke="#61d6c1" transform="matrix(1,0,0,1,-145.5,-39.5)" style="opacity: 0.81;" stroke-width="10" opacity="0.81"></rect><rect x="335" y="496" width="312" height="277" r="5" rx="5" ry="5" fill="#8bf781" stroke="#61d6c1" transform="matrix(1,0,0,1,-156,-138.5)" style="opacity: 0.81;" stroke-width="10" opacity="0.81"></rect><rect x="255" y="-8" width="130" height="115" r="5" rx="5" ry="5" fill="#8bf781" stroke="#61d6c1" transform="matrix(1,0,0,1,-65,-57.5)" style="opacity: 0.81;" stroke-width="10" opacity="0.81"></rect><rect x="255" y="496" width="291" height="247" r="5" rx="5" ry="5" fill="#8bf781" stroke="#61d6c1" transform="matrix(1,0,0,1,-145.5,-123.5)" style="opacity: 0.81;" stroke-width="10" opacity="0.81"></rect><rect x="336" y="188" width="64" height="94" r="5" rx="5" ry="5" fill="#8bf781" stroke="#61d6c1" transform="matrix(1,0,0,1,-32,-47)" style="opacity: 0.81;" stroke-width="10" opacity="0.81"></rect><rect x="388" y="148" width="157" height="25" r="5" rx="5" ry="5" fill="#8bf781" stroke="#61d6c1" transform="matrix(1,0,0,1,-78.5,-12.5)" style="opacity: 0.81;" stroke-width="10" opacity="0.81"></rect><rect x="354" y="-47" width="83" height="288" r="5" rx="5" ry="5" fill="#8bf781" stroke="#61d6c1" transform="matrix(1,0,0,1,-41.5,-144)" style="opacity: 0.81;" stroke-width="10" opacity="0.81"></rect><rect x="290" y="234" width="65" height="236" r="5" rx="5" ry="5" fill="#8bf781" stroke="#61d6c1" transform="matrix(1,0,0,1,-32.5,-118)" style="opacity: 0.81;" stroke-width="10" opacity="0.81"></rect><rect x="232" y="119" width="80" height="238" r="5" rx="5" ry="5" fill="#8bf781" stroke="#61d6c1" transform="matrix(1,0,0,1,-40,-119)" style="opacity: 0.81;" stroke-width="10" opacity="0.81"></rect><rect x="233" y="-48" width="75" height="30" r="5" rx="5" ry="5" fill="#8bf781" stroke="#61d6c1" transform="matrix(1,0,0,1,-37.5,-15)" style="opacity: 0.81;" stroke-width="10" opacity="0.81"></rect><rect x="235" y="213" width="123" height="174" r="5" rx="5" ry="5" fill="#8bf781" stroke="#61d6c1" transform="matrix(1,0,0,1,-61.5,-87)" style="opacity: 0.81;" stroke-width="10" opacity="0.81"></rect><rect x="372" y="445" width="170" height="181" r="5" rx="5" ry="5" fill="#8bf781" stroke="#61d6c1" transform="matrix(1,0,0,1,-85,-90.5)" style="opacity: 0.81;" stroke-width="10" opacity="0.81"></rect><rect x="339" y="-11" width="139" height="107" r="5" rx="5" ry="5" fill="#8bf781" stroke="#61d6c1" transform="matrix(1,0,0,1,-69.5,-53.5)" style="opacity: 0.81;" stroke-width="10" opacity="0.81"></rect><rect x="274" y="333" width="165" height="268" r="5" rx="5" ry="5" fill="#8bf781" stroke="#61d6c1" transform="matrix(1,0,0,1,-82.5,-134)" style="opacity: 0.81;" stroke-width="10" opacity="0.81"></rect><rect x="390" y="-20" width="40" height="135" r="5" rx="5" ry="5" fill="#8bf781" stroke="#61d6c1" transform="matrix(1,0,0,1,-20,-67.5)" style="opacity: 0.81;" stroke-width="10" opacity="0.81"></rect><rect x="350" y="442" width="71" height="57" r="5" rx="5" ry="5" fill="#8bf781" stroke="#61d6c1" transform="matrix(1,0,0,1,-35.5,-28.5)" style="opacity: 0.81;" stroke-width="10" opacity="0.81"></rect><rect x="234" y="143" width="210" height="149" r="5" rx="5" ry="5" fill="#8bf781" stroke="#61d6c1" transform="matrix(1,0,0,1,-105,-74.5)" style="opacity: 0.81;" stroke-width="10" opacity="0.81"></rect><rect x="232" y="-15" width="54" height="224" r="5" rx="5" ry="5" fill="#8bf781" stroke="#61d6c1" transform="matrix(1,0,0,1,-27,-112)" style="opacity: 0.81;" stroke-width="10" opacity="0.81"></rect></svg>