<svg height="480" version="1.1" width="640" xmlns="http://www.w3.org/2000/svg" style="overflow: hidden; position: relative; top: -0.316666px;"><desc>Created with Raphaël 2.0.1</desc><defs></defs><rect x="0" y="0" width="640" height="480" r="0" rx="0" ry="0" fill="#9e8ed6" stroke="none" style=""></rect><rect x="193" y="37" width="205" height="277" r="5" rx="5" ry="5" fill="#fd76a4" stroke="#609f8f" transform="matrix(1,0,0,1,-102.5,-138.5)" style="opacity: 0.44;" stroke-width="2" opacity="0.44"></rect><rect x="387" y="451" width="308" height="157" r="5" rx="5" ry="5" fill="#fd76a4" stroke="#609f8f" transform="matrix(1,0,0,1,-154,-78.5)" style="opacity: 0.44;" stroke-width="2" opacity="0.44"></rect><rect x="382" y="395" width="268" height="87" r="5" rx="5" ry="5" fill="#fd76a4" stroke="#609f8f" transform="matrix(1,0,0,1,-134,-43.5)" style="opacity: 0.44;" stroke-width="2" opacity="0.44"></rect><rect x="177" y="62" width="73" height="141" r="5" rx="5" ry="5" fill="#fd76a4" stroke="#609f8f" transform="matrix(1,0,0,1,-36.5,-70.5)" style="opacity: 0.44;" stroke-width="2" opacity="0.44"></rect><rect x="419" y="332" width="41" height="234" r="5" rx="5" ry="5" fill="#fd76a4" stroke="#609f8f" transform="matrix(1,0,0,1,-20.5,-117)" style="opacity: 0.44;" stroke-width="2" opacity="0.44"></rect><rect x="445" y="238" width="130" height="68" r="5" rx="5" ry="5" fill="#fd76a4" stroke="#609f8f" transform="matrix(1,0,0,1,-65,-34)" style="opacity: 0.44;" stroke-width="2" opacity="0.44"></rect><rect x="374" y="178" width="82" height="216" r="5" rx="5" ry="5" fill="#fd76a4" stroke="#609f8f" transform="matrix(1,0,0,1,-41,-108)" style="opacity: 0.44;" stroke-width="2" opacity="0.44"></rect><rect x="379" y="317" width="263" height="151" r="5" rx="5" ry="5" fill="#fd76a4" stroke="#609f8f" transform="matrix(1,0,0,1,-131.5,-75.5)" style="opacity: 0.44;" stroke-width="2" opacity="0.44"></rect><rect x="392" y="221" width="136" height="86" r="5" rx="5" ry="5" fill="#fd76a4" stroke="#609f8f" transform="matrix(1,0,0,1,-68,-43)" style="opacity: 0.44;" stroke-width="2" opacity="0.44"></rect><rect x="382" y="7" width="47" height="316" r="5" rx="5" ry="5" fill="#fd76a4" stroke="#609f8f" transform="matrix(1,0,0,1,-23.5,-158)" style="opacity: 0.44;" stroke-width="2" opacity="0.44"></rect><rect x="294" y="394" width="117" height="287" r="5" rx="5" ry="5" fill="#fd76a4" stroke="#609f8f" transform="matrix(1,0,0,1,-58.5,-143.5)" style="opacity: 0.44;" stroke-width="2" opacity="0.44"></rect><rect x="203" y="220" width="118" height="147" r="5" rx="5" ry="5" fill="#fd76a4" stroke="#609f8f" transform="matrix(1,0,0,1,-59,-73.5)" style="opacity: 0.44;" stroke-width="2" opacity="0.44"></rect><rect x="384" y="185" width="97" height="61" r="5" rx="5" ry="5" fill="#fd76a4" stroke="#609f8f" transform="matrix(1,0,0,1,-48.5,-30.5)" style="opacity: 0.44;" stroke-width="2" opacity="0.44"></rect><rect x="141" y="125" width="221" height="201" r="5" rx="5" ry="5" fill="#fd76a4" stroke="#609f8f" transform="matrix(1,0,0,1,-110.5,-100.5)" style="opacity: 0.44;" stroke-width="2" opacity="0.44"></rect><rect x="299" y="352" width="95" height="205" r="5" rx="5" ry="5" fill="#fd76a4" stroke="#609f8f" transform="matrix(1,0,0,1,-47.5,-102.5)" style="opacity: 0.44;" stroke-width="2" opacity="0.44"></rect><rect x="413" y="127" width="141" height="206" r="5" rx="5" ry="5" fill="#fd76a4" stroke="#609f8f" transform="matrix(1,0,0,1,-70.5,-103)" style="opacity: 0.44;" stroke-width="2" opacity="0.44"></rect><rect x="394" y="112" width="148" height="59" r="5" rx="5" ry="5" fill="#fd76a4" stroke="#609f8f" transform="matrix(1,0,0,1,-74,-29.5)" style="opacity: 0.44;" stroke-width="2" opacity="0.44"></rect><rect x="482" y="265" width="266" height="78" r="5" rx="5" ry="5" fill="#fd76a4" stroke="#609f8f" transform="matrix(1,0,0,1,-133,-39)" style="opacity: 0.44;" stroke-width="2" opacity="0.44"></rect><rect x="255" y="263" width="57" height="118" r="5" rx="5" ry="5" fill="#fd76a4" stroke="#609f8f" transform="matrix(1,0,0,1,-28.5,-59)" style="opacity: 0.44;" stroke-width="2" opacity="0.44"></rect><rect x="348" y="196" width="155" height="47" r="5" rx="5" ry="5" fill="#fd76a4" stroke="#609f8f" transform="matrix(1,0,0,1,-77.5,-23.5)" style="opacity: 0.44;" stroke-width="2" opacity="0.44"></rect><rect x="285" y="105" width="198" height="282" r="5" rx="5" ry="5" fill="#fd76a4" stroke="#609f8f" transform="matrix(1,0,0,1,-99,-141)" style="opacity: 0.44;" stroke-width="2" opacity="0.44"></rect><rect x="230" y="93" width="284" height="36" r="5" rx="5" ry="5" fill="#fd76a4" stroke="#609f8f" transform="matrix(1,0,0,1,-142,-18)" style="opacity: 0.44;" stroke-width="2" opacity="0.44"></rect><rect x="491" y="173" width="192" height="89" r="5" rx="5" ry="5" fill="#fd76a4" stroke="#609f8f" transform="matrix(1,0,0,1,-96,-44.5)" style="opacity: 0.44;" stroke-width="2" opacity="0.44"></rect><rect x="296" y="172" width="180" height="47" r="5" rx="5" ry="5" fill="#fd76a4" stroke="#609f8f" transform="matrix(1,0,0,1,-90,-23.5)" style="opacity: 0.44;" stroke-width="2" opacity="0.44"></rect><rect x="389" y="180" width="94" height="213" r="5" rx="5" ry="5" fill="#fd76a4" stroke="#609f8f" transform="matrix(1,0,0,1,-47,-106.5)" style="opacity: 0.44;" stroke-width="2" opacity="0.44"></rect><rect x="430" y="451" width="35" height="262" r="5" rx="5" ry="5" fill="#fd76a4" stroke="#609f8f" transform="matrix(1,0,0,1,-17.5,-131)" style="opacity: 0.44;" stroke-width="2" opacity="0.44"></rect><rect x="363" y="395" width="287" height="200" r="5" rx="5" ry="5" fill="#fd76a4" stroke="#609f8f" transform="matrix(1,0,0,1,-143.5,-100)" style="opacity: 0.44;" stroke-width="2" opacity="0.44"></rect><rect x="443" y="323" width="102" height="298" r="5" rx="5" ry="5" fill="#fd76a4" stroke="#609f8f" transform="matrix(1,0,0,1,-51,-149)" style="opacity: 0.44;" stroke-width="2" opacity="0.44"></rect><rect x="277" y="320" width="178" height="161" r="5" rx="5" ry="5" fill="#fd76a4" stroke="#609f8f" transform="matrix(1,0,0,1,-89,-80.5)" style="opacity: 0.44;" stroke-width="2" opacity="0.44"></rect><rect x="472" y="441" width="221" height="156" r="5" rx="5" ry="5" fill="#fd76a4" stroke="#609f8f" transform="matrix(1,0,0,1,-110.5,-78)" style="opacity: 0.44;" stroke-width="2" opacity="0.44"></rect><rect x="144" y="239" width="229" height="43" r="5" rx="5" ry="5" fill="#fd76a4" stroke="#609f8f" transform="matrix(1,0,0,1,-114.5,-21.5)" style="opacity: 0.44;" stroke-width="2" opacity="0.44"></rect><rect x="172" y="271" width="51" height="129" r="5" rx="5" ry="5" fill="#fd76a4" stroke="#609f8f" transform="matrix(1,0,0,1,-25.5,-64.5)" style="opacity: 0.44;" stroke-width="2" opacity="0.44"></rect></svg>