<svg height="480" version="1.1" width="640" xmlns="http://www.w3.org/2000/svg" style="overflow: hidden; position: relative; top: -0.316666px;"><desc>Created with Raphaël 2.0.1</desc><defs></defs><rect x="0" y="0" width="640" height="480" r="0" rx="0" ry="0" fill="#10fe00" stroke="none" style=""></rect><ellipse cx="516" cy="350" rx="80" ry="112.8" fill="#cbfcae" stroke="#c337f7" transform="matrix(1,0,0,1,0,0)" style="opacity: 0.63;" stroke-width="10" opacity="0.63"></ellipse><ellipse cx="123" cy="221" rx="140" ry="197.39999999999998" fill="#cbfcae" stroke="#c337f7" transform="matrix(0.9939,0.11,-0.11,0.9939,25.0583,-12.1897)" style="opacity: 0.63;" stroke-width="10" opacity="0.63"></ellipse><ellipse cx="129" cy="152" rx="153" ry="215.73" fill="#cbfcae" stroke="#c337f7" transform="matrix(0.9758,0.2187,-0.2187,0.9758,36.3618,-24.5309)" style="opacity: 0.63;" stroke-width="10" opacity="0.63"></ellipse><ellipse cx="70" cy="298" rx="66" ry="93.05999999999999" fill="#cbfcae" stroke="#c337f7" transform="matrix(0.9458,0.3247,-0.3247,0.9458,100.5532,-6.5825)" style="opacity: 0.63;" stroke-width="10" opacity="0.63"></ellipse><ellipse cx="357" cy="222" rx="152" ry="214.32" fill="#cbfcae" stroke="#c337f7" transform="matrix(0.9044,0.4268,-0.4268,0.9044,128.8889,-131.1265)" style="opacity: 0.63;" stroke-width="10" opacity="0.63"></ellipse><ellipse cx="387" cy="203" rx="140" ry="197.39999999999998" fill="#cbfcae" stroke="#c337f7" transform="matrix(0.8519,0.5237,-0.5237,0.8519,163.6128,-172.6011)" style="opacity: 0.63;" stroke-width="10" opacity="0.63"></ellipse><ellipse cx="564" cy="108" rx="111" ry="156.51" fill="#cbfcae" stroke="#c337f7" transform="matrix(0.7891,0.6142,-0.6142,0.7891,185.2597,-323.6431)" style="opacity: 0.63;" stroke-width="10" opacity="0.63"></ellipse><ellipse cx="440" cy="321" rx="96" ry="135.35999999999999" fill="#cbfcae" stroke="#c337f7" transform="matrix(0.7168,0.6973,-0.6973,0.7168,348.448,-215.8978)" style="opacity: 0.63;" stroke-width="10" opacity="0.63"></ellipse><ellipse cx="498" cy="324" rx="90" ry="126.89999999999999" fill="#cbfcae" stroke="#c337f7" transform="matrix(0.6357,0.7719,-0.7719,0.6357,431.5106,-266.389)" style="opacity: 0.63;" stroke-width="10" opacity="0.63"></ellipse><ellipse cx="141" cy="188" rx="163" ry="229.82999999999998" fill="#cbfcae" stroke="#c337f7" transform="matrix(0.5469,0.8372,-0.8372,0.5469,221.2676,-32.8667)" style="opacity: 0.63;" stroke-width="10" opacity="0.63"></ellipse><ellipse cx="313" cy="209" rx="75" ry="105.75" fill="#cbfcae" stroke="#c337f7" transform="matrix(0.4515,0.8923,-0.8923,0.4515,358.1512,-164.646)" style="opacity: 0.63;" stroke-width="10" opacity="0.63"></ellipse><ellipse cx="472" cy="168" rx="65" ry="91.64999999999999" fill="#cbfcae" stroke="#c337f7" transform="matrix(0.3506,0.9365,-0.9365,0.3506,463.833,-332.9404)" style="opacity: 0.63;" stroke-width="10" opacity="0.63"></ellipse><ellipse cx="320" cy="177" rx="103" ry="145.23" fill="#cbfcae" stroke="#c337f7" transform="matrix(0.2455,0.9694,-0.9694,0.2455,413.0285,-176.659)" style="opacity: 0.63;" stroke-width="10" opacity="0.63"></ellipse><ellipse cx="424" cy="88" rx="183" ry="258.03" fill="#cbfcae" stroke="#c337f7" transform="matrix(0.1374,0.9905,-0.9905,0.1374,452.928,-344.0685)" style="opacity: 0.63;" stroke-width="10" opacity="0.63"></ellipse><ellipse cx="371" cy="387" rx="168" ry="236.88" fill="#cbfcae" stroke="#c337f7" transform="matrix(0.0276,0.9996,-0.9996,0.0276,747.6304,5.4773)" style="opacity: 0.63;" stroke-width="10" opacity="0.63"></ellipse><ellipse cx="110" cy="136" rx="112" ry="157.92" fill="#cbfcae" stroke="#c337f7" transform="matrix(-0.0826,0.9966,-0.9966,-0.0826,254.6192,37.6065)" style="opacity: 0.63;" stroke-width="10" opacity="0.63"></ellipse><ellipse cx="198" cy="256" rx="191" ry="269.31" fill="#cbfcae" stroke="#c337f7" transform="matrix(-0.1917,0.9815,-0.9815,-0.1917,487.2103,110.7505)" style="opacity: 0.63;" stroke-width="10" opacity="0.63"></ellipse><ellipse cx="497" cy="102" rx="75" ry="105.75" fill="#cbfcae" stroke="#c337f7" transform="matrix(-0.2985,0.9544,-0.9544,-0.2985,742.7112,-341.8908)" style="opacity: 0.63;" stroke-width="10" opacity="0.63"></ellipse><ellipse cx="267" cy="324" rx="58" ry="81.78" fill="#cbfcae" stroke="#c337f7" transform="matrix(-0.4017,0.9158,-0.9158,-0.4017,670.9632,209.6378)" style="opacity: 0.63;" stroke-width="10" opacity="0.63"></ellipse><ellipse cx="207" cy="118" rx="187" ry="263.66999999999996" fill="#cbfcae" stroke="#c337f7" transform="matrix(-0.5,0.866,-0.866,-0.5,412.691,-2.2673)" style="opacity: 0.63;" stroke-width="10" opacity="0.63"></ellipse><ellipse cx="136" cy="330" rx="112" ry="157.92" fill="#cbfcae" stroke="#c337f7" transform="matrix(-0.5922,0.8058,-0.8058,-0.5922,482.4465,415.8536)" style="opacity: 0.63;" stroke-width="10" opacity="0.63"></ellipse><ellipse cx="535" cy="171" rx="60" ry="84.6" fill="#cbfcae" stroke="#c337f7" transform="matrix(-0.6773,0.7357,-0.7357,-0.6773,1023.1544,-106.7971)" style="opacity: 0.63;" stroke-width="10" opacity="0.63"></ellipse><ellipse cx="420" cy="103" rx="75" ry="105.75" fill="#cbfcae" stroke="#c337f7" transform="matrix(-0.7541,0.6568,-0.6568,-0.7541,804.3702,-95.1629)" style="opacity: 0.63;" stroke-width="10" opacity="0.63"></ellipse><ellipse cx="62" cy="354" rx="95" ry="133.95" fill="#cbfcae" stroke="#c337f7" transform="matrix(-0.8218,0.5698,-0.5698,-0.8218,314.6623,609.5812)" style="opacity: 0.63;" stroke-width="10" opacity="0.63"></ellipse><ellipse cx="112" cy="285" rx="62" ry="87.42" fill="#cbfcae" stroke="#c337f7" transform="matrix(-0.8795,0.4759,-0.4759,-0.8795,346.1461,482.3439)" style="opacity: 0.63;" stroke-width="10" opacity="0.63"></ellipse><ellipse cx="271" cy="189" rx="184" ry="259.44" fill="#cbfcae" stroke="#c337f7" transform="matrix(-0.9265,0.3763,-0.3763,-0.9265,593.2024,262.1275)" style="opacity: 0.63;" stroke-width="10" opacity="0.63"></ellipse><ellipse cx="273" cy="378" rx="153" ry="215.73" fill="#cbfcae" stroke="#c337f7" transform="matrix(-0.9623,0.2721,-0.2721,-0.9623,638.5543,667.4531)" style="opacity: 0.63;" stroke-width="10" opacity="0.63"></ellipse><ellipse cx="153" cy="120" rx="74" ry="104.33999999999999" fill="#cbfcae" stroke="#c337f7" transform="matrix(-0.9864,0.1646,-0.1646,-0.9864,323.6646,213.1804)" style="opacity: 0.63;" stroke-width="10" opacity="0.63"></ellipse><ellipse cx="214" cy="362" rx="182" ry="256.62" fill="#cbfcae" stroke="#c337f7" transform="matrix(-0.9985,0.0551,-0.0551,-0.9985,447.6168,711.6615)" style="opacity: 0.63;" stroke-width="10" opacity="0.63"></ellipse><ellipse cx="491" cy="312" rx="70" ry="98.69999999999999" fill="#cbfcae" stroke="#c337f7" transform="matrix(-0.9985,-0.0551,0.0551,-0.9985,964.067,650.5743)" style="opacity: 0.63;" stroke-width="10" opacity="0.63"></ellipse><ellipse cx="147" cy="380" rx="162" ry="228.42" fill="#cbfcae" stroke="#c337f7" transform="matrix(-0.9864,-0.1646,0.1646,-0.9864,229.4492,779.0127)" style="opacity: 0.63;" stroke-width="10" opacity="0.63"></ellipse><ellipse cx="313" cy="147" rx="115" ry="162.14999999999998" fill="#cbfcae" stroke="#c337f7" transform="matrix(-0.9623,-0.2721,0.2721,-0.9623,574.1907,373.6218)" style="opacity: 0.63;" stroke-width="10" opacity="0.63"></ellipse><ellipse cx="467" cy="128" rx="100" ry="141" fill="#cbfcae" stroke="#c337f7" transform="matrix(-0.9265,-0.3763,0.3763,-0.9265,851.5051,422.3277)" style="opacity: 0.63;" stroke-width="10" opacity="0.63"></ellipse><ellipse cx="215" cy="200" rx="104" ry="146.64" fill="#cbfcae" stroke="#c337f7" transform="matrix(-0.8795,-0.4759,0.4759,-0.8795,308.8974,478.2234)" style="opacity: 0.63;" stroke-width="10" opacity="0.63"></ellipse><ellipse cx="394" cy="93" rx="116" ry="163.56" fill="#cbfcae" stroke="#c337f7" transform="matrix(-0.8218,-0.5698,0.5698,-0.8218,664.7883,393.9297)" style="opacity: 0.63;" stroke-width="10" opacity="0.63"></ellipse><ellipse cx="389" cy="287" rx="121" ry="170.60999999999999" fill="#cbfcae" stroke="#c337f7" transform="matrix(-0.7541,-0.6568,0.6568,-0.7541,493.8596,758.9051)" style="opacity: 0.63;" stroke-width="10" opacity="0.63"></ellipse><ellipse cx="265" cy="293" rx="100" ry="141" fill="#cbfcae" stroke="#c337f7" transform="matrix(-0.6773,-0.7357,0.7357,-0.6773,228.9125,686.4103)" style="opacity: 0.63;" stroke-width="10" opacity="0.63"></ellipse><ellipse cx="254" cy="371" rx="199" ry="280.59" fill="#cbfcae" stroke="#c337f7" transform="matrix(-0.5922,-0.8058,0.8058,-0.5922,105.4889,795.3836)" style="opacity: 0.63;" stroke-width="10" opacity="0.63"></ellipse><ellipse cx="188" cy="225" rx="91" ry="128.31" fill="#cbfcae" stroke="#c337f7" transform="matrix(-0.5,-0.866,0.866,-0.5,87.1443,500.3128)" style="opacity: 0.63;" stroke-width="10" opacity="0.63"></ellipse><ellipse cx="418" cy="377" rx="186" ry="262.26" fill="#cbfcae" stroke="#c337f7" transform="matrix(-0.4017,-0.9158,0.9158,-0.4017,240.6621,911.2324)" style="opacity: 0.63;" stroke-width="10" opacity="0.63"></ellipse><ellipse cx="529" cy="262" rx="170" ry="239.7" fill="#cbfcae" stroke="#c337f7" transform="matrix(-0.2985,-0.9544,0.9544,-0.2985,436.8602,845.0911)" style="opacity: 0.63;" stroke-width="10" opacity="0.63"></ellipse><ellipse cx="303" cy="397" rx="181" ry="255.20999999999998" fill="#cbfcae" stroke="#c337f7" transform="matrix(-0.1917,-0.9815,0.9815,-0.1917,-28.5479,770.4889)" style="opacity: 0.63;" stroke-width="10" opacity="0.63"></ellipse><ellipse cx="110" cy="179" rx="113" ry="159.32999999999998" fill="#cbfcae" stroke="#c337f7" transform="matrix(-0.0826,-0.9966,0.9966,-0.0826,-59.3049,303.406)" style="opacity: 0.63;" stroke-width="10" opacity="0.63"></ellipse><ellipse cx="356" cy="204" rx="72" ry="101.52" fill="#cbfcae" stroke="#c337f7" transform="matrix(0.0276,-0.9996,0.9996,0.0276,142.2681,554.2437)" style="opacity: 0.63;" stroke-width="10" opacity="0.63"></ellipse><ellipse cx="123" cy="312" rx="106" ry="149.45999999999998" fill="#cbfcae" stroke="#c337f7" transform="matrix(0.1374,-0.9905,0.9905,0.1374,-202.9374,390.9799)" style="opacity: 0.63;" stroke-width="10" opacity="0.63"></ellipse><ellipse cx="512" cy="204" rx="67" ry="94.47" fill="#cbfcae" stroke="#c337f7" transform="matrix(0.2455,-0.9694,0.9694,0.2455,188.5538,650.2539)" style="opacity: 0.63;" stroke-width="10" opacity="0.63"></ellipse><ellipse cx="432" cy="305" rx="158" ry="222.78" fill="#cbfcae" stroke="#c337f7" transform="matrix(0.3506,-0.9365,0.9365,0.3506,-5.1114,602.6284)" style="opacity: 0.63;" stroke-width="10" opacity="0.63"></ellipse><ellipse cx="253" cy="385" rx="53" ry="74.72999999999999" fill="#cbfcae" stroke="#c337f7" transform="matrix(0.4515,-0.8923,0.8923,0.4515,-204.7558,436.9)" style="opacity: 0.63;" stroke-width="10" opacity="0.63"></ellipse><ellipse cx="542" cy="334" rx="194" ry="273.53999999999996" fill="#cbfcae" stroke="#c337f7" transform="matrix(0.5469,-0.8372,0.8372,0.5469,-34.0595,605.0635)" style="opacity: 0.63;" stroke-width="10" opacity="0.63"></ellipse><ellipse cx="477" cy="181" rx="123" ry="173.42999999999998" fill="#cbfcae" stroke="#c337f7" transform="matrix(0.6357,-0.7719,0.7719,0.6357,34.0429,434.1382)" style="opacity: 0.63;" stroke-width="10" opacity="0.63"></ellipse><ellipse cx="463" cy="390" rx="96" ry="135.35999999999999" fill="#cbfcae" stroke="#c337f7" transform="matrix(0.7168,-0.6973,0.6973,0.7168,-140.8161,433.3032)" style="opacity: 0.63;" stroke-width="10" opacity="0.63"></ellipse><ellipse cx="480" cy="200" rx="52" ry="73.32" fill="#cbfcae" stroke="#c337f7" transform="matrix(0.7891,-0.6142,0.6142,0.7891,-21.63,336.994)" style="opacity: 0.63;" stroke-width="10" opacity="0.63"></ellipse><ellipse cx="196" cy="205" rx="66" ry="93.05999999999999" fill="#cbfcae" stroke="#c337f7" transform="matrix(0.8519,-0.5237,0.5237,0.8519,-78.3292,132.9964)" style="opacity: 0.63;" stroke-width="10" opacity="0.63"></ellipse><ellipse cx="294" cy="265" rx="177" ry="249.57" fill="#cbfcae" stroke="#c337f7" transform="matrix(0.9044,-0.4268,0.4268,0.9044,-84.9768,150.8176)" style="opacity: 0.63;" stroke-width="10" opacity="0.63"></ellipse><ellipse cx="188" cy="307" rx="110" ry="155.1" fill="#cbfcae" stroke="#c337f7" transform="matrix(0.9458,-0.3247,0.3247,0.9458,-89.4964,77.6776)" style="opacity: 0.63;" stroke-width="10" opacity="0.63"></ellipse><ellipse cx="353" cy="362" rx="140" ry="197.39999999999998" fill="#cbfcae" stroke="#c337f7" transform="matrix(0.9758,-0.2187,0.2187,0.9758,-70.6187,85.9561)" style="opacity: 0.63;" stroke-width="10" opacity="0.63"></ellipse><ellipse cx="481" cy="122" rx="154" ry="217.14" fill="#cbfcae" stroke="#c337f7" transform="matrix(0.9939,-0.11,0.11,0.9939,-10.5017,53.6544)" style="opacity: 0.63;" stroke-width="10" opacity="0.63"></ellipse></svg>